<?xml version="1.0" standalone="no"?>
<!DOCTYPE svg PUBLIC "-//W3C//DTD SVG 20010904//EN"
 "http://www.w3.org/TR/2001/REC-SVG-20010904/DTD/svg10.dtd">
<svg version="1.0" xmlns="http://www.w3.org/2000/svg"
 width="84.000000pt" height="84.000000pt" viewBox="0 0 84.000000 84.000000"
 preserveAspectRatio="xMidYMid meet">
<metadata>
Created by potrace 1.11, written by Peter Selinger 2001-2013
</metadata>
<g transform="translate(0.000000,84.000000) scale(0.100000,-0.100000)"
fill="#000000" stroke="none">
<path d="M297 820 c-184 -59 -302 -227 -293 -418 6 -127 56 -228 153 -307 281
-229 710 -7 679 353 -7 84 -22 125 -24 66 -6 -145 -130 -266 -277 -267 -60 0
-135 19 -135 36 0 4 23 29 51 55 47 43 55 46 104 47 42 0 59 5 78 24 14 12 30
21 35 17 18 -11 45 19 37 43 -10 32 -59 26 -63 -8 -5 -34 -41 -60 -82 -61
l-34 0 37 38 c24 24 37 47 37 64 0 40 25 59 68 52 28 -4 43 -1 63 15 34 26 40
50 23 90 -29 70 -127 57 -140 -18 -4 -20 -17 -46 -31 -58 -13 -12 -27 -37 -29
-55 -5 -32 -16 -45 -100 -121 l-40 -36 1 55 c2 62 29 101 74 106 20 2 27 9 29
29 2 17 -3 29 -13 33 -24 9 -54 -11 -50 -33 2 -10 -6 -26 -16 -35 -19 -16 -20
-15 -18 31 3 41 8 52 47 89 24 24 50 40 57 38 13 -5 45 21 45 35 0 5 -7 14
-15 21 -19 16 -55 3 -55 -20 0 -10 -21 -38 -46 -63 -48 -45 -49 -50 -53 -146
-1 -23 -2 -24 -21 -6 -11 10 -20 29 -20 42 0 27 -25 41 -49 26 -24 -16 -5 -73
19 -58 4 2 21 -11 39 -29 30 -31 32 -38 28 -85 -3 -38 -10 -56 -28 -70 -24
-19 -24 -19 -45 0 -12 11 -34 45 -49 76 -35 72 -38 164 -7 235 41 92 142 164
236 169 76 4 36 20 -60 24 -68 3 -103 0 -147 -15z m413 -200 c-12 -22 -12 -22
-34 -14 -19 7 -21 40 -3 47 6 2 20 0 30 -5 14 -7 15 -13 7 -28z"/>
</g>
</svg>
