<svg width="19" height="19" viewBox="0 0 19 19" fill="none" xmlns="http://www.w3.org/2000/svg">
<g clip-path="url(#clip0)">
<path d="M15.0418 15.8333H4.75009C2.27564 15.8347 0.214553 13.9363 0.0130501 11.4701C-0.188453 9.00383 1.53714 6.79602 3.97901 6.3958C5.10295 4.40309 7.21227 3.16937 9.50009 3.16655C10.9267 3.16116 12.3124 3.64262 13.4283 4.53143C14.5241 5.40056 15.3031 6.60636 15.645 7.96251C17.6906 8.27682 19.1488 10.1139 18.9906 12.1774C18.8324 14.241 17.1114 15.8344 15.0418 15.8333ZM9.50009 4.74992C7.78353 4.75195 6.20096 5.67784 5.3581 7.17322L4.9876 7.83743L4.2363 7.96013C2.61361 8.232 1.46944 9.70124 1.60339 11.3411C1.73734 12.9809 3.10479 14.245 4.75009 14.2499H15.0418C16.2836 14.2512 17.3167 13.2957 17.4122 12.0575C17.5077 10.8194 16.6332 9.71676 15.4059 9.52764L14.3641 9.3693L14.1092 8.34647C13.5829 6.23019 11.6808 4.74593 9.50009 4.74992ZM10.648 12.6666H8.35218V10.2916H6.33343L9.50009 7.12493L12.6668 10.2916H10.648V12.6666Z" fill="#2E3A59"/>
</g>
<defs>
<clipPath id="clip0">
<rect width="19" height="19" fill="white"/>
</clipPath>
</defs>
</svg>
