<svg width="43" height="33" viewBox="0 0 43 33" fill="none" xmlns="http://www.w3.org/2000/svg">
<path d="M31.0556 11.875C31.0556 5.48672 24.1054 0.3125 15.5278 0.3125C6.95017 0.3125 0 5.48672 0 11.875C0 14.3537 1.0526 16.6373 2.83681 18.5234C1.83646 20.7059 0.186632 22.4402 0.164236 22.4619C0 22.6281 -0.0447917 22.8738 0.0522569 23.0906C0.149306 23.3074 0.358333 23.4375 0.597222 23.4375C3.32951 23.4375 5.59149 22.5486 7.21892 21.6309C9.62274 22.7654 12.467 23.4375 15.5278 23.4375C24.1054 23.4375 31.0556 18.2633 31.0556 11.875ZM40.1632 27.7734C41.9474 25.8945 43 23.6037 43 21.125C43 16.2904 39.0061 12.1496 33.3474 10.4225C33.4146 10.8994 33.4444 11.3836 33.4444 11.875C33.4444 19.5279 25.4043 25.75 15.5278 25.75C14.7215 25.75 13.9377 25.6922 13.1613 25.6127C15.5128 29.768 21.0372 32.6875 27.4722 32.6875C30.533 32.6875 33.3773 32.0227 35.7811 30.8809C37.4085 31.7986 39.6705 32.6875 42.4028 32.6875C42.6417 32.6875 42.8582 32.5502 42.9477 32.3406C43.0448 32.1311 43 31.8854 42.8358 31.7119C42.8134 31.6902 41.1635 29.9631 40.1632 27.7734Z" fill="#00EAF5"/>
</svg>
