<svg width="213" height="179" viewBox="0 0 213 179" fill="none" xmlns="http://www.w3.org/2000/svg">
<g clip-path="url(#clip0)">
<path opacity="0.1" d="M155.831 0.236719C145.839 -0.24611 135.675 -0.165284 126.026 2.21483C116.377 4.59495 107.201 9.49343 101.71 17.006C98.5663 21.3068 96.6898 26.3435 93.0283 30.2998C86.6766 37.1594 76.295 39.5161 66.7143 41.8813C44.2151 47.4115 21.5902 55.4026 5.27014 70.3725C2.92714 72.5186 0.643776 74.9668 0.113406 77.934C-0.700254 82.4964 2.88241 86.7653 6.85699 89.6857C10.8316 92.606 15.5346 94.9223 18.4761 98.7105C22.2271 103.541 22.4379 109.924 21.3729 115.727C20.3079 121.529 18.1162 127.174 17.5389 133.04C17.3962 134.487 17.3621 135.995 17.9905 137.333C18.8233 139.107 20.6743 140.31 22.4891 141.323C28.9231 144.929 35.8657 147.544 43.0819 149.08C55.5147 151.741 68.48 151.241 81.2089 152.334C93.9378 153.428 107.195 156.486 116.141 164.684C121.628 169.71 126.578 177.042 134.401 176.793C138.785 176.655 142.657 173.979 147.03 173.681C151.953 173.345 156.402 176.021 161.043 177.546C167.636 179.715 175.27 179.505 181.451 176.514C187.632 173.524 192.12 167.666 192.482 161.37C192.836 155.202 189.487 149.431 187.553 143.503C181.21 124.081 190.133 103.558 199.004 84.951C207.876 66.3439 217.031 45.9736 211.128 26.4393C204.276 3.78243 177.734 1.29597 155.831 0.236719Z" fill="#63FFE4"/>
<path d="M50.4427 114.622C50.4427 114.622 43.0601 110.581 40.8726 104.376C39.9716 101.77 38.248 99.5254 35.9608 97.9804C34.8693 97.2553 33.7135 96.6316 32.5081 96.1171" stroke="#535461" stroke-width="2" stroke-miterlimit="10"/>
<path d="M31.0982 92.2183C31.7969 92.9202 32.5487 96.215 32.5487 96.215C32.5487 96.215 29.2536 95.4428 28.555 94.7431C28.2313 94.404 28.0535 93.9517 28.0599 93.4833C28.0662 93.0149 28.256 92.5675 28.5887 92.2373C28.9214 91.907 29.3705 91.72 29.8396 91.7165C30.3087 91.7129 30.7605 91.8931 31.0982 92.2183Z" fill="#63FFE4"/>
<path d="M37.0746 94.0156C37.2876 94.9834 36.1161 98.1569 36.1161 98.1569C36.1161 98.1569 33.7731 95.7215 33.5601 94.7537C33.5032 94.5206 33.4937 94.2784 33.5323 94.0416C33.5709 93.8047 33.6568 93.578 33.7848 93.375C33.9129 93.1719 34.0804 92.9966 34.2776 92.8595C34.4748 92.7224 34.6976 92.6262 34.9328 92.5768C35.1679 92.5273 35.4106 92.5255 35.6464 92.5715C35.8823 92.6176 36.1064 92.7104 36.3056 92.8446C36.5048 92.9789 36.675 93.1517 36.806 93.3528C36.937 93.554 37.0262 93.7794 37.0682 94.0156H37.0746Z" fill="#63FFE4"/>
<path d="M43.5885 100.743C43.2754 101.681 40.6683 103.836 40.6683 103.836C40.6683 103.836 39.8738 100.55 40.1869 99.6118C40.3372 99.1605 40.6608 98.7873 41.0866 98.5743C41.5124 98.3613 42.0055 98.3259 42.4575 98.476C42.9094 98.626 43.2831 98.9492 43.4964 99.3744C43.7097 99.7996 43.7452 100.292 43.5949 100.743H43.5885Z" fill="#63FFE4"/>
<path d="M47.3713 106.941C47.2222 107.918 45.0155 110.483 45.0155 110.483C45.0155 110.483 43.6779 107.38 43.827 106.401C43.9109 105.943 44.1703 105.535 44.5502 105.265C44.9301 104.994 45.4006 104.883 45.8618 104.953C46.323 105.023 46.7386 105.27 47.0204 105.641C47.3023 106.013 47.4281 106.479 47.3713 106.941Z" fill="#63FFE4"/>
<path d="M33.5816 100.943C34.5721 100.933 37.4157 99.1098 37.4157 99.1098C37.4157 99.1098 34.5252 97.3529 33.5348 97.3635C33.0697 97.3839 32.6308 97.5841 32.3108 97.9217C31.9908 98.2594 31.8148 98.7081 31.8201 99.173C31.8253 99.6378 32.0114 100.082 32.3389 100.413C32.6665 100.743 33.1098 100.933 33.5753 100.943H33.5816Z" fill="#63FFE4"/>
<path d="M38.0971 108.137C39.0386 107.83 41.2112 105.24 41.2112 105.24C41.2112 105.24 37.9267 104.427 36.9853 104.734C36.5485 104.893 36.1907 105.215 35.9872 105.633C35.7838 106.05 35.7508 106.53 35.895 106.971C36.0392 107.413 36.3494 107.781 36.7602 107.999C37.1711 108.216 37.6504 108.265 38.0971 108.137Z" fill="#63FFE4"/>
<path d="M43.452 114.528C44.4318 114.386 47.0112 112.189 47.0112 112.189C47.0112 112.189 43.91 110.834 42.9302 110.976C42.6966 111.011 42.4721 111.09 42.2694 111.211C42.0667 111.332 41.8899 111.492 41.749 111.681C41.608 111.87 41.5058 112.085 41.4481 112.313C41.3903 112.542 41.3783 112.78 41.4125 113.013C41.4468 113.246 41.5267 113.47 41.6478 113.673C41.7688 113.875 41.9286 114.052 42.118 114.193C42.3073 114.333 42.5226 114.435 42.7515 114.493C42.9804 114.551 43.2184 114.563 43.452 114.528Z" fill="#63FFE4"/>
<path d="M56.2471 97.238C56.2471 97.238 51.1351 90.5529 51.6527 83.9996C51.8863 81.2523 51.2211 78.5034 49.757 76.1658C49.0533 75.0618 48.2498 74.0244 47.3565 73.0668" stroke="#535461" stroke-width="2" stroke-miterlimit="10"/>
<path d="M47.6544 68.9319C48.008 69.855 47.3604 73.1731 47.3604 73.1731C47.3604 73.1731 44.6596 71.1355 44.306 70.2123C44.2107 69.9906 44.1613 69.7519 44.1608 69.5106C44.1602 69.2692 44.2085 69.0303 44.3027 68.8081C44.3969 68.5859 44.5351 68.385 44.709 68.2174C44.8829 68.0499 45.0889 67.9192 45.3147 67.8331C45.5405 67.7471 45.7813 67.7075 46.0228 67.7167C46.2643 67.7259 46.5014 67.7838 46.7199 67.8868C46.9384 67.9898 47.1338 68.1359 47.2944 68.3162C47.455 68.4965 47.5774 68.7074 47.6544 68.9361V68.9319Z" fill="#63FFE4"/>
<path d="M52.3833 72.9902C52.1703 73.958 49.8273 76.3934 49.8273 76.3934C49.8273 76.3934 48.6707 73.2178 48.8752 72.25C48.9209 72.0168 49.0126 71.795 49.145 71.5975C49.2773 71.4 49.4477 71.2309 49.6463 71.0998C49.8448 70.9688 50.0674 70.8785 50.3012 70.8342C50.535 70.7899 50.7753 70.7926 51.0081 70.842C51.2409 70.8914 51.4615 70.9865 51.657 71.1219C51.8526 71.2573 52.0192 71.4302 52.1472 71.6305C52.2752 71.8309 52.362 72.0546 52.4026 72.2888C52.4431 72.523 52.4365 72.7628 52.3833 72.9945V72.9902Z" fill="#63FFE4"/>
<path d="M55.6098 81.7769C54.9431 82.5085 51.6842 83.4232 51.6842 83.4232C51.6842 83.4232 52.2913 80.0986 52.9622 79.367C53.1186 79.1856 53.3098 79.0374 53.5245 78.931C53.7392 78.8247 53.9731 78.7624 54.2123 78.7479C54.4515 78.7333 54.6913 78.7668 54.9173 78.8464C55.1434 78.9259 55.3511 79.0499 55.5284 79.2109C55.7057 79.372 55.8488 79.567 55.9493 79.7842C56.0499 80.0015 56.1058 80.2366 56.1138 80.4758C56.1217 80.715 56.0816 80.9534 55.9958 81.1769C55.91 81.4003 55.7802 81.6043 55.6141 81.7769H55.6098Z" fill="#63FFE4"/>
<path d="M56.5536 88.9746C56.0211 89.8084 52.9645 91.259 52.9645 91.259C52.9645 91.259 53.0007 87.8792 53.5332 87.0454C53.7979 86.6653 54.1996 86.4023 54.6541 86.3115C55.1087 86.2208 55.5808 86.3093 55.9715 86.5585C56.3621 86.8078 56.6409 87.1984 56.7495 87.6484C56.858 88.0985 56.7878 88.573 56.5536 88.9725V88.9746Z" fill="#63FFE4"/>
<path d="M46.3808 77.9121C47.2903 78.3013 50.6408 77.7887 50.6408 77.7887C50.6408 77.7887 48.7089 75.013 47.7994 74.6238C47.3649 74.4502 46.8797 74.453 46.4474 74.6317C46.015 74.8104 45.6697 75.1508 45.4851 75.5802C45.3006 76.0096 45.2914 76.494 45.4595 76.9301C45.6276 77.3661 45.9598 77.7193 46.3851 77.9142L46.3808 77.9121Z" fill="#63FFE4"/>
<path d="M47.5905 86.3095C48.5746 86.4095 51.6141 84.9206 51.6141 84.9206C51.6141 84.9206 48.9388 82.8489 47.9547 82.7489C47.4921 82.7199 47.0363 82.8709 46.6827 83.1702C46.3291 83.4695 46.1053 83.8939 46.0582 84.3543C46.0111 84.8148 46.1444 85.2756 46.43 85.6401C46.7157 86.0046 47.1316 86.2445 47.5905 86.3095Z" fill="#63FFE4"/>
<path d="M49.8889 94.3219C50.8431 94.5878 54.0892 93.6306 54.0892 93.6306C54.0892 93.6306 51.8037 91.1378 50.8495 90.8655C50.6207 90.7962 50.3804 90.7732 50.1426 90.798C49.9048 90.8227 49.6744 90.8947 49.4648 91.0096C49.2553 91.1246 49.0709 91.2802 48.9225 91.4674C48.7741 91.6546 48.6646 91.8695 48.6006 92.0995C48.5365 92.3295 48.5192 92.57 48.5496 92.8068C48.5799 93.0436 48.6574 93.2719 48.7774 93.4784C48.8975 93.6849 49.0576 93.8653 49.2485 94.009C49.4393 94.1528 49.6571 94.257 49.8889 94.3155V94.3219Z" fill="#63FFE4"/>
<path d="M150.544 105.986C150.544 105.986 149.511 97.64 153.266 92.2417C154.855 89.9871 155.669 87.2786 155.586 84.5228C155.536 83.2147 155.366 81.9139 155.079 80.6368" stroke="#535461" stroke-width="2" stroke-miterlimit="10"/>
<path d="M157.424 77.2187C157.262 78.195 155.028 80.7325 155.028 80.7325C155.028 80.7325 153.727 77.6122 153.888 76.638C153.976 76.1793 154.24 75.773 154.624 75.5058C155.007 75.2386 155.48 75.1316 155.942 75.2076C156.403 75.2836 156.817 75.5366 157.094 75.9127C157.371 76.2888 157.491 76.7582 157.426 77.2208L157.424 77.2187Z" fill="#63FFE4"/>
<path d="M159.456 83.102C158.789 83.8337 155.533 84.7504 155.533 84.7504C155.533 84.7504 156.138 81.4259 156.811 80.6942C157.136 80.3644 157.576 80.1729 158.039 80.1601C158.502 80.1472 158.953 80.3139 159.296 80.6252C159.638 80.9366 159.847 81.3683 159.878 81.83C159.91 82.2917 159.761 82.7476 159.463 83.102H159.456Z" fill="#63FFE4"/>
<path d="M157.803 92.3162C156.857 92.6118 153.583 91.761 153.583 91.761C153.583 91.761 155.788 89.1958 156.731 88.9002C157.177 88.7848 157.651 88.8452 158.053 89.0689C158.456 89.2925 158.757 89.6623 158.894 90.1015C159.031 90.5407 158.993 91.0157 158.789 91.428C158.584 91.8403 158.229 92.1584 157.796 92.3162H157.803Z" fill="#63FFE4"/>
<path d="M154.981 99.0056C154.099 99.4565 150.721 99.1693 150.721 99.1693C150.721 99.1693 152.459 96.2681 153.341 95.8172C153.551 95.7101 153.78 95.6453 154.015 95.6265C154.249 95.6077 154.486 95.6353 154.71 95.7076C154.934 95.78 155.142 95.8958 155.321 96.0484C155.501 96.2009 155.648 96.3872 155.755 96.5967C155.863 96.8062 155.928 97.0348 155.946 97.2693C155.965 97.5038 155.938 97.7398 155.865 97.9637C155.793 98.1875 155.677 98.395 155.524 98.5741C155.371 98.7532 155.185 98.9006 154.975 99.0077L154.981 99.0056Z" fill="#63FFE4"/>
<path d="M151.788 84.3293C152.376 85.1248 155.524 86.3669 155.524 86.3669C155.524 86.3669 155.26 82.9978 154.672 82.2023C154.384 81.8361 153.965 81.5964 153.502 81.5341C153.04 81.4717 152.572 81.5916 152.197 81.8683C151.822 82.1449 151.569 82.5566 151.493 83.0161C151.417 83.4755 151.523 83.9465 151.788 84.3293Z" fill="#63FFE4"/>
<path d="M148.587 92.1928C149.386 92.7756 152.762 93.0202 152.762 93.0202C152.762 93.0202 151.499 89.885 150.7 89.3022C150.315 89.038 149.842 88.934 149.382 89.0125C148.921 89.091 148.51 89.3457 148.235 89.7225C147.959 90.0993 147.842 90.5684 147.908 91.0301C147.974 91.4918 148.217 91.9097 148.587 92.1949V92.1928Z" fill="#63FFE4"/>
<path d="M146.525 100.265C147.215 100.975 150.5 101.783 150.5 101.783C150.5 101.783 149.786 98.4802 149.096 97.7698C148.934 97.5921 148.738 97.4487 148.52 97.3481C148.302 97.2475 148.065 97.1918 147.825 97.1843C147.585 97.1768 147.345 97.2175 147.121 97.3042C146.897 97.3909 146.693 97.5218 146.52 97.6889C146.347 97.8561 146.21 98.0563 146.117 98.2774C146.023 98.4986 145.975 98.7363 145.975 98.9764C145.976 99.2165 146.024 99.4541 146.118 99.6751C146.212 99.896 146.35 100.096 146.523 100.263L146.525 100.265Z" fill="#63FFE4"/>
<path d="M100.502 38.0733L42.0994 92.4119V172.425H158.902V92.4119L100.502 38.0733Z" fill="url(#paint0_linear)"/>
<path d="M157.652 170.988H43.35V92.6862L100.502 39.5112L157.652 92.6862V170.988Z" fill="#E8EAF1"/>
<path opacity="0.1" d="M157.213 92.7352H43.4285V170.875H157.213V92.7352Z" fill="black"/>
<path d="M123.127 30.3417H134.948C136.342 30.3417 137.472 29.2132 137.472 27.8212V16.0163C137.472 14.6243 136.342 13.4958 134.948 13.4958H123.127C121.733 13.4958 120.603 14.6243 120.603 16.0163V27.8212C120.603 29.2132 121.733 30.3417 123.127 30.3417Z" fill="#63FFE4"/>
<path d="M105.235 51.1863H117.056C118.45 51.1863 119.58 50.0578 119.58 48.6658V36.8609C119.58 35.4689 118.45 34.3405 117.056 34.3405H105.235C103.841 34.3405 102.711 35.4689 102.711 36.8609V48.6658C102.711 50.0578 103.841 51.1863 105.235 51.1863Z" fill="#63FFE4"/>
<path d="M151.243 21.8337H163.064C164.458 21.8337 165.589 20.7052 165.589 19.3132V7.50832C165.589 6.11628 164.458 4.98782 163.064 4.98782H151.243C149.849 4.98782 148.719 6.11628 148.719 7.50832V19.3132C148.719 20.7052 149.849 21.8337 151.243 21.8337Z" fill="#63FFE4"/>
<path opacity="0.5" d="M84.3375 112.629H80.4013V109.056C80.4013 108.387 80.1354 107.746 79.662 107.273C79.1887 106.801 78.5467 106.535 77.8772 106.535H66.0557C65.3863 106.535 64.7443 106.801 64.271 107.273C63.7976 107.746 63.5317 108.387 63.5317 109.056V120.861C63.5317 121.529 63.7976 122.17 64.271 122.643C64.7443 123.115 65.3863 123.381 66.0557 123.381H69.992V126.954C69.992 127.623 70.2579 128.264 70.7312 128.737C71.2046 129.209 71.8466 129.475 72.516 129.475H84.3375C85.007 129.475 85.649 129.209 86.1223 128.737C86.5957 128.264 86.8616 127.623 86.8616 126.954V115.15C86.8616 114.819 86.7963 114.491 86.6694 114.185C86.5426 113.879 86.3567 113.601 86.1223 113.367C85.8879 113.133 85.6097 112.948 85.3034 112.821C84.9972 112.694 84.669 112.629 84.3375 112.629Z" fill="#63FFE4"/>
<path opacity="0.5" d="M134.948 104.742H123.127C122.795 104.742 122.467 104.807 122.161 104.934C121.855 105.061 121.576 105.246 121.342 105.48C121.108 105.714 120.922 105.992 120.795 106.298C120.668 106.604 120.603 106.932 120.603 107.263V112.806H114.692C114.023 112.806 113.381 113.071 112.907 113.544C112.434 114.016 112.168 114.658 112.168 115.326V121.05H106.615C105.946 121.05 105.304 121.315 104.83 121.788C104.357 122.261 104.091 122.902 104.091 123.57V135.375C104.091 136.044 104.357 136.685 104.83 137.157C105.304 137.63 105.946 137.896 106.615 137.896H118.428C119.097 137.896 119.739 137.63 120.213 137.157C120.686 136.685 120.952 136.044 120.952 135.375V129.654H126.522C127.191 129.654 127.833 129.388 128.307 128.915C128.78 128.443 129.046 127.802 129.046 127.133V121.59H134.957C135.625 121.588 136.266 121.321 136.738 120.847C137.209 120.374 137.473 119.733 137.472 119.065V107.26C137.472 106.592 137.206 105.952 136.732 105.48C136.259 105.007 135.617 104.742 134.948 104.742Z" fill="#63FFE4"/>
<path d="M75.453 87.5729C75.587 87.8849 75.7847 88.1655 76.0333 88.3969C76.2819 88.6284 76.5761 88.8056 76.8971 88.9172C77.1826 89.0087 77.485 89.0406 77.7768 89.115C79.1677 89.4596 80.1518 90.6592 81.417 91.3228C81.5185 91.3856 81.6343 91.4215 81.7535 91.4271H81.7961C81.8223 91.4296 81.8487 91.4296 81.875 91.4271C82.0055 91.4131 82.1292 91.3614 82.2307 91.2782L82.2882 91.2356C82.4257 91.7983 82.4467 92.3831 82.3499 92.9542C81.8473 92.9542 78.582 93.1542 79.0293 96.9955C79.5128 101.164 84.3543 106.992 84.3543 106.992C84.3543 106.992 87.741 110.447 86.6525 122.237L86.5311 127.954C86.5311 127.954 87.8326 127.758 89.4918 127.563C89.5302 127.639 89.5692 127.714 89.609 127.788C90.0827 128.614 90.6861 129.359 91.3961 129.994L94.1459 136.541C94.1459 136.541 94.3823 136.966 94.7316 137.638C94.7636 139.023 93.9031 140.233 93.9031 140.233C88.5781 141.782 86.4033 147.378 86.4033 147.378C86.4033 147.378 83.4 149.175 82.7504 151.183C81.4724 152.208 81.5682 155.012 81.5682 155.012C81.5682 155.012 86.0412 157.394 89.3108 158.704C89.6899 158.856 90.085 158.965 90.4887 159.027L89.7623 160.516C89.0041 160.789 88.9487 164.53 88.9487 164.53C88.9487 164.53 96.9319 170.247 99.3516 170.605C101.771 170.962 103.825 169.294 101.288 168.103C99.2409 167.144 96.9596 163.481 96.1502 162.092C97.1641 160.706 100.359 156.211 100.561 154.408C100.804 152.264 103.827 150.477 103.827 150.477C108.183 145.832 105.279 140.354 104.915 137.502C104.915 137.447 104.9 137.387 104.89 137.326C104.623 136.086 104.281 134.863 103.865 133.665C104.34 130.668 104.717 125.987 104.949 122.896C105.91 123.204 106.851 123.57 106.851 123.57C108.617 119.991 102.619 105.248 100.887 101.164C101.895 100.833 103.631 100.314 106.121 99.7521C110.355 98.7992 110.594 96.6552 110.594 96.6552L113.859 87.8431C113.58 87.9664 113.154 87.9622 112.656 87.875C112.656 87.8005 112.656 87.7218 112.656 87.6367C112.681 86.8008 112.76 85.4651 113.007 85.2226C113.007 85.2226 112.204 85.2226 111.228 85.1354V85.0163L111.667 79.6243C111.667 79.6243 111.062 73.6687 109.007 74.5025C107.356 75.1725 107.576 80.5219 107.729 82.6064C107.767 83.1395 107.924 83.6574 108.187 84.1229L108.325 84.3675L108.421 84.5356C108.331 84.4924 108.244 84.4426 108.161 84.3867V86.2308C107.933 86.1223 107.799 86.0542 107.799 86.0542C107.921 88.0792 105.38 94.8664 105.38 94.8664C105.38 94.8664 100.907 94.39 99.4517 95.3429C98.3867 96.0427 96.998 94.6899 96.3313 93.9199L99.4709 87.1177C99.0941 87.0509 98.722 86.96 98.3569 86.8455C98.3718 86.7625 98.3867 86.6753 98.4038 86.586C98.5614 85.7352 98.8468 84.5292 99.2302 84.3782C98.6762 84.0763 98.1019 83.8133 97.5113 83.5912C97.5262 83.5231 97.539 83.4508 97.556 83.3785C97.7818 82.1874 98.1375 79.6137 97.4154 77.8376C96.4484 75.4554 96.0842 70.8185 94.2694 71.882C92.8295 72.7328 92.7614 77.8589 92.7933 79.937C92.8018 80.5001 92.9433 81.0533 93.2066 81.5514L93.9052 82.8744L94.001 83.0573L93.9052 83.0743V84.7015C93.5985 84.5079 93.4217 84.3846 93.4217 84.3846C93.3599 86.6732 91.8433 89.7255 90.3609 92.1821L89.6069 91.627L89.4215 91.4951C89.4196 91.4711 89.4196 91.4469 89.4215 91.4228C89.4215 91.4228 89.1106 91.3356 88.6207 91.2356C88.0115 90.0807 87.6707 88.6832 87.4811 87.5304C87.4619 87.4091 87.4428 87.2922 87.4257 87.1773C87.7058 86.5576 87.851 85.8855 87.8517 85.2056C87.8434 84.0439 87.4224 82.9229 86.6637 82.0422C85.905 81.1615 84.8579 80.5783 83.7089 80.3964C83.858 80.2326 83.9219 80.1837 83.9687 80.1837H84.0007C84.0752 80.1837 84.1775 80.2178 84.5481 80.037C84.9187 79.8562 85.3639 79.5733 85.3618 79.1521C85.3618 78.8437 85.1168 78.5906 84.857 78.4162C84.2329 77.9908 84.2179 77.2782 83.6343 77.3314C83.5223 77.3221 83.4097 77.3373 83.3042 77.3761C82.7717 77.5505 82.3095 77.8823 81.7919 78.095C81.4295 78.243 81.0453 78.3306 80.6545 78.3545C80.4048 78.3546 80.1555 78.3745 79.909 78.4141C79.7118 78.4635 79.5226 78.5401 79.3466 78.6417C78.2539 79.2372 76.993 80.1433 76.6415 81.3238C76.3135 82.4298 76.7672 83.8634 75.9216 84.6589C75.7671 84.7806 75.6245 84.9167 75.4956 85.0652C75.3876 85.2292 75.315 85.414 75.2826 85.6076C75.134 86.2645 75.1935 86.9513 75.453 87.5729ZM97.5688 144.842C97.6157 145.412 97.507 145.817 97.1726 145.948C95.3579 146.663 93.3024 153.212 93.3024 153.212L91.9264 156.048C90.8355 155.225 89.7916 154.343 88.7996 153.404L88.9487 152.376C88.9487 152.376 92.8189 149.518 93.0617 148.684C93.2555 148.014 96.3845 145.7 97.5688 144.842Z" fill="url(#paint1_linear)"/>
<path d="M100.272 100.409C100.272 100.409 108.498 119.423 106.5 123.532C106.5 123.532 103.209 122.241 102.738 122.469C102.268 122.696 97.5667 97.9399 97.5667 97.9399L100.272 100.409Z" fill="#575988"/>
<path opacity="0.05" d="M100.272 100.409C100.272 100.409 108.498 119.423 106.5 123.532C106.5 123.532 103.209 122.241 102.738 122.469C102.268 122.696 97.5667 97.9399 97.5667 97.9399L100.272 100.409Z" fill="black"/>
<path d="M95.8054 160.967C95.8054 160.967 98.6255 166.249 101.094 167.423C103.563 168.597 101.565 170.239 99.2134 169.888C96.8619 169.537 89.1066 163.903 89.1066 163.903C89.1066 163.903 89.1598 160.214 89.8968 159.946C90.6338 159.678 95.8054 160.967 95.8054 160.967Z" fill="#575988"/>
<path d="M88.395 152.4C88.395 152.4 92.3909 156.39 94.146 156.743C95.9012 157.096 92.6188 159.442 89.4451 158.151C86.2714 156.86 81.9241 154.514 81.9241 154.514C81.9241 154.514 81.8069 150.758 83.8049 150.407C85.8028 150.056 88.395 152.4 88.395 152.4Z" fill="#575988"/>
<path d="M104.856 119.774C104.856 119.774 104.034 134.093 102.975 136.088C101.916 138.083 97.9206 144.185 97.9206 144.185C97.9206 144.185 93.3368 147.471 93.1025 148.292C92.8682 149.113 89.1066 151.93 89.1066 151.93L88.8723 153.572C88.8723 153.572 82.6442 153.219 82.9957 151.106C83.3471 148.994 86.638 146.999 86.638 146.999C86.638 146.999 88.753 141.484 93.9247 139.957C93.9247 139.957 95.569 137.617 94.159 135.733C94.159 135.733 90.6338 126.931 88.6359 125.874C86.638 124.817 89.4602 118.719 89.4602 118.719L104.856 119.774Z" fill="#67647E"/>
<path opacity="0.05" d="M104.856 119.774C104.856 119.774 104.034 134.093 102.975 136.088C101.916 138.083 97.9206 144.185 97.9206 144.185C97.9206 144.185 93.3368 147.471 93.1025 148.292C92.8682 149.113 89.1066 151.93 89.1066 151.93L88.8723 153.572C88.8723 153.572 82.6442 153.219 82.9957 151.106C83.3471 148.994 86.638 146.999 86.638 146.999C86.638 146.999 88.753 141.484 93.9247 139.957C93.9247 139.957 95.569 137.617 94.159 135.733C94.159 135.733 90.6338 126.931 88.6359 125.874C86.638 124.817 89.4602 118.719 89.4602 118.719L104.856 119.774Z" fill="black"/>
<path d="M93.3367 152.753L89.5751 160.623C90.163 162.618 95.8033 161.914 95.8033 161.914C95.8033 161.914 100.153 156.045 100.387 153.933C100.621 151.821 103.561 150.06 103.561 150.06C107.791 145.483 104.971 140.084 104.626 137.268C104.626 137.215 104.611 137.155 104.6 137.094C104.287 135.205 102.385 129.771 100.907 125.702C99.9099 122.96 99.1026 120.837 99.1026 120.837C99.1026 120.837 91.2216 121.19 89.5837 124.006C88.8297 125.295 89.1577 126.64 89.7541 127.716C90.2135 128.528 90.8003 129.262 91.4921 129.89L94.1674 136.33C94.1674 136.33 98.8683 144.898 97.1047 145.602C95.3411 146.306 93.3367 152.753 93.3367 152.753Z" fill="#67647E"/>
<path d="M107.373 83.1637C107.411 83.6864 107.563 84.1945 107.819 84.6526L107.953 84.895L108.615 86.0883H110.73L110.775 85.5331L111.201 80.2156C111.201 80.2156 110.613 74.3472 108.615 75.1683C107.011 75.8361 107.226 81.109 107.373 83.1637Z" fill="#F7C4A7"/>
<path opacity="0.1" d="M107.953 84.8993L108.615 86.0925H110.73L110.775 85.5374C109.791 85.4587 108.619 85.2694 107.953 84.8993Z" fill="black"/>
<path d="M107.793 84.9184V87.6176L112.142 88.7917C112.142 88.7917 112.142 88.5109 112.155 88.1196C112.181 87.2964 112.257 85.9798 112.496 85.7416C112.494 85.7394 108.969 85.7394 107.793 84.9184Z" fill="#E6E6F0"/>
<path opacity="0.1" d="M107.793 86.5009V87.6176L112.142 88.7917C112.142 88.7917 112.142 88.5109 112.155 88.1196C110.705 87.8665 108.615 86.9008 107.793 86.5009Z" fill="black"/>
<path d="M82.4309 90.9549C83.2829 93.4286 82.1732 94.5431 82.1732 94.5431C82.1732 94.5431 92.7508 95.2472 90.165 93.369C88.6548 92.2715 87.986 89.8531 87.692 88.0324C87.567 87.2744 87.4902 86.5093 87.462 85.7416C87.462 85.7416 79.0101 85.6182 80.7631 87.9707C81.4673 88.8752 82.0297 89.8815 82.4309 90.9549Z" fill="#F7C4A7"/>
<path opacity="0.1" d="M80.7631 87.9707C81.6151 89.1278 81.9048 89.2979 82.1966 90.1338C82.4612 90.1785 82.7291 90.2006 82.9975 90.1998C85.0125 90.1998 86.9742 89.785 87.6835 88.0302C87.5585 87.2723 87.4816 86.5071 87.4534 85.7395C87.4534 85.7395 79.008 85.6161 80.7631 87.9707Z" fill="black"/>
<path d="M83.2294 90.5529C85.8904 90.5529 88.0475 88.3988 88.0475 85.7416C88.0475 83.0844 85.8904 80.9303 83.2294 80.9303C80.5685 80.9303 78.4114 83.0844 78.4114 85.7416C78.4114 88.3988 80.5685 90.5529 83.2294 90.5529Z" fill="#F7C4A7"/>
<path d="M107.441 86.5626C107.441 86.5626 112.025 88.9023 113.318 88.3238L110.144 97.0083C110.144 97.0083 109.91 99.1204 105.795 100.061C101.68 101.001 99.684 101.817 99.684 101.817L92.0458 92.7798L95.9246 93.8433C95.9246 93.8433 97.9225 96.6595 99.3326 95.7215C100.743 94.7835 105.084 95.2514 105.084 95.2514C105.084 95.2514 107.565 88.5577 107.441 86.5626Z" fill="#575988"/>
<path opacity="0.05" d="M107.441 86.5626C107.441 86.5626 112.025 88.9023 113.318 88.3238L110.144 97.0083C110.144 97.0083 109.91 99.1204 105.795 100.061C101.68 101.001 99.684 101.817 99.684 101.817L92.0458 92.7798L95.9246 93.8433C95.9246 93.8433 97.9225 96.6595 99.3326 95.7215C100.743 94.7835 105.084 95.2514 105.084 95.2514C105.084 95.2514 107.565 88.5577 107.441 86.5626Z" fill="black"/>
<path opacity="0.1" d="M89.5768 92.1013C89.5768 92.1013 83.3636 90.3274 82.7097 93.6221C82.7097 93.6221 85.581 92.2247 89.694 94.6856C90.0028 94.8707 90.3053 95.0685 90.5992 95.2748C94.2202 97.8081 96.7464 101.735 97.7624 106.178L100.389 117.664L100.623 120.752C100.623 120.752 104.385 121.494 105.096 120.382C105.807 119.27 105.33 115.564 104.274 114.329C103.217 113.093 101.564 107.792 101.564 107.792L100.536 104.71C99.6748 102.117 98.3064 99.7213 96.51 97.6613L96.2629 97.3699C94.7137 95.5106 92.748 94.0416 90.5247 93.0819C89.9304 92.8202 89.4938 92.4906 89.5768 92.1013Z" fill="black"/>
<path d="M89.5768 91.8674C89.5768 91.8674 83.3636 90.0934 82.7097 93.3882C82.7097 93.3882 85.581 91.9907 89.694 94.4517C90.0028 94.6367 90.3053 94.8345 90.5992 95.0409C94.2202 97.5741 96.7464 101.501 97.7624 105.944L100.389 117.43L100.623 120.518C100.623 120.518 104.385 121.26 105.096 120.148C105.807 119.036 105.33 115.33 104.274 114.095C103.217 112.859 101.571 107.546 101.571 107.546L100.536 104.476C99.6748 101.883 98.3064 99.4874 96.51 97.4273L96.2608 97.1274C94.7112 95.2715 92.7463 93.8055 90.5247 92.8479C89.9304 92.5842 89.4938 92.2651 89.5768 91.8674Z" fill="#E6E6F0"/>
<path opacity="0.1" d="M105.201 115.524L105.148 117.545L103.503 116.481C103.503 116.481 100.572 105.829 98.5083 102.926C98.2655 102.583 98.1483 102.075 97.9204 101.988L89.5176 93.8901V92.012C89.5176 92.012 93.8074 95.1812 94.1588 95.7683C94.3079 96.0171 96.5636 97.2572 97.9204 99.1715C99.137 100.946 100.217 102.809 101.152 104.746L103.972 111.085L105.201 115.524Z" fill="black"/>
<path d="M89.5176 91.9014V93.72L98.0376 101.877C98.2634 101.964 98.3826 102.475 98.6255 102.815C100.689 105.721 103.62 116.37 103.62 116.37L105.265 117.434L105.316 115.413L104.091 110.983L101.271 104.644C100.336 102.707 99.2563 100.843 98.0397 99.0694C96.6829 97.1551 94.4187 95.915 94.2781 95.6662C93.9735 95.16 90.6571 92.7373 89.7497 92.0779L89.5176 91.9014Z" fill="#787C9C"/>
<path opacity="0.1" d="M84.8334 80.6325C85.2062 80.4496 85.6258 80.1752 85.6237 79.7604C85.6056 79.6094 85.5518 79.4648 85.4666 79.3386C85.3814 79.2125 85.2673 79.1085 85.1338 79.0351C84.4628 78.5778 84.5139 77.7589 83.7429 78.0099C83.2274 78.1822 82.7759 78.5098 82.2732 78.7182C81.9214 78.8638 81.5478 78.9501 81.1677 78.9735C80.9251 78.9731 80.683 78.9923 80.4435 79.0309C80.2513 79.08 80.067 79.1559 79.8961 79.2563C78.8243 79.8547 78.0281 80.8465 77.6766 82.0214C77.3571 83.1105 77.3891 84.4016 76.5669 85.1843C76.4183 85.3045 76.2814 85.4384 76.1579 85.5842C76.0508 85.7455 75.9782 85.9273 75.9449 86.1181C75.797 86.7687 75.8535 87.449 76.1068 88.0664C76.2353 88.3724 76.4263 88.6484 76.6677 88.8765C76.909 89.1047 77.1953 89.2801 77.5084 89.3915C77.7853 89.483 78.0792 89.5149 78.3604 89.5851C79.7108 89.9254 80.6671 91.108 81.8962 91.761C81.9942 91.8224 82.1064 91.8576 82.222 91.8631C82.3492 91.8497 82.4694 91.7986 82.5671 91.7163C83.0421 91.376 83.434 90.8506 83.4191 90.2657C83.3804 89.901 83.2735 89.5467 83.1039 89.2213C82.8465 88.6117 82.6496 87.9784 82.516 87.3304C82.4733 87.1815 82.4689 87.0242 82.5032 86.8731C82.5927 86.5881 82.9079 86.4477 83.1273 86.2542C83.5533 85.8692 83.5938 85.2119 83.4404 84.6653C83.287 84.1187 82.9633 83.638 82.7226 83.1232C82.6395 82.9689 82.5908 82.7983 82.5799 82.6234C82.5799 81.9364 83.5086 81.5599 83.9005 81.1111C84.4436 80.5006 84.1071 80.992 84.8334 80.6325Z" fill="black"/>
<path d="M84.7165 80.6325C85.0892 80.4496 85.5088 80.1752 85.5067 79.7604C85.4886 79.6094 85.4348 79.4648 85.3496 79.3386C85.2644 79.2125 85.1503 79.1085 85.0168 79.0351C84.3459 78.5778 84.397 77.7589 83.6259 78.0099C83.1104 78.1822 82.6589 78.5098 82.1562 78.7182C81.8044 78.8638 81.4308 78.9501 81.0507 78.9735C80.8079 78.9883 80.0241 78.6183 79.7877 78.6736C79.5955 78.7226 79.4112 78.7985 79.2402 78.899C78.1684 79.4973 77.3723 80.4892 77.0208 81.6641C76.7013 82.7531 76.9249 84.1165 76.1028 84.8993C75.9643 85.0312 76.1517 85.431 76.041 85.5863C75.9338 85.7477 75.8613 85.9294 75.828 86.1202C75.68 86.7708 75.7365 87.4511 75.9899 88.0685C76.1184 88.3746 76.3094 88.6505 76.5507 88.8786C76.792 89.1068 77.0784 89.2822 77.3914 89.3936C77.6683 89.4851 77.9622 89.517 78.2434 89.5872C79.5938 89.9275 80.5502 91.1101 81.7792 91.7631C81.8772 91.8246 81.9895 91.8597 82.1051 91.8652C82.2322 91.8519 82.3524 91.8007 82.4502 91.7184C82.9251 91.3781 83.3171 90.8527 83.3021 90.2678C83.2634 89.9031 83.1565 89.5488 82.9869 89.2235C82.7296 88.6139 82.5327 87.9805 82.399 87.3326C82.3563 87.1836 82.3519 87.0263 82.3863 86.8753C82.4757 86.5902 82.791 86.4499 83.0103 86.2563C83.4363 85.8713 83.4768 85.2141 83.3235 84.6674C83.1701 84.1208 82.8463 83.6401 82.6056 83.1254C82.5225 82.971 82.4738 82.8005 82.4629 82.6255C82.4629 81.9385 83.3916 81.562 83.7835 81.1132C84.3267 80.5006 83.9901 80.992 84.7165 80.6325Z" fill="#B96B6B"/>
<path opacity="0.1" d="M89.7475 127.707C91.8967 127.452 94.6145 127.203 95.8052 127.403C97.7222 127.722 100.417 126.014 100.9 125.702C99.9033 122.96 99.0961 120.837 99.0961 120.837C99.0961 120.837 91.2151 121.19 89.5771 124.006C88.8209 125.289 89.1596 126.631 89.7475 127.707Z" fill="black"/>
<path d="M79.4706 97.3593C79.9413 101.467 84.6422 107.218 84.6422 107.218C84.6422 107.218 87.9331 110.621 86.8744 122.241L86.7573 127.873C86.7573 127.873 93.6904 126.81 95.8077 127.169C97.9249 127.529 100.979 125.408 100.979 125.408C100.979 125.408 102.155 105.104 97.1006 100.879C96.4776 99.9196 95.7999 98.9964 95.0707 98.1144C93.7139 96.4744 91.8757 94.6261 90.1419 94.1709C89.92 94.111 89.6921 94.076 89.4624 94.0667C89.4624 94.0667 84.1736 91.1335 82.7635 93.3626C82.7614 93.369 78.9998 93.252 79.4706 97.3593Z" fill="#575988"/>
<path opacity="0.1" d="M100.917 119.246C100.917 119.246 99.0449 118.427 95.8648 118.659C92.6847 118.891 87.0402 116.088 87.0402 116.088" fill="black"/>
<path opacity="0.05" d="M97.5092 145.417C97.5092 145.417 97.392 145.77 98.9192 146.238C100.446 146.706 100.917 147.176 100.917 147.176" fill="black"/>
<path d="M108.038 65.3628H96.2164C94.8224 65.3628 93.6923 66.4912 93.6923 67.8833V79.6881C93.6923 81.0802 94.8224 82.2086 96.2164 82.2086H108.038C109.432 82.2086 110.562 81.0802 110.562 79.6881V67.8833C110.562 66.4912 109.432 65.3628 108.038 65.3628Z" fill="#63FFE4"/>
<path d="M92.8443 80.5347C92.8526 81.0891 92.9905 81.6339 93.2469 82.1257L93.9264 83.4295L94.3971 84.3314L97.3344 84.5654C97.3344 84.5654 97.3962 84.3229 97.4707 83.9273C97.6837 82.7531 98.0351 80.2178 97.3344 78.4672C96.395 76.1275 96.0415 71.5439 94.2778 72.5988C92.8784 73.4348 92.8124 78.4843 92.8443 80.5347Z" fill="#F7C4A7"/>
<path opacity="0.1" d="M93.9332 83.3934V83.4295L94.404 84.3314L97.3412 84.5654C97.3412 84.5654 97.403 84.3229 97.4776 83.9272C96.4189 83.5167 95.0408 83.1445 93.9332 83.3934Z" fill="black"/>
<path d="M93.9332 83.6274V85.7395L98.1634 87.9686C98.1634 87.9686 98.2124 87.5857 98.3019 87.0922C98.4552 86.2414 98.7279 85.0652 99.1049 84.9184C99.0964 84.9184 96.0398 83.1573 93.9332 83.6274Z" fill="#E6E6F0"/>
<path opacity="0.05" d="M82.4822 102.811C82.9975 103.264 83.601 103.606 84.255 103.815C84.9089 104.024 85.5991 104.096 86.2821 104.025C93.7201 103.27 93.9331 100.645 93.9331 100.645L95.0747 98.1207C93.7179 96.4808 91.8797 94.6325 90.1459 94.1773C88.9127 96.1618 87.82 97.5932 87.82 97.5932C87.82 97.5932 82.2969 93.369 80.6504 97.3593C79.6876 99.682 81.119 101.607 82.4822 102.811Z" fill="black"/>
<path opacity="0.1" d="M93.9332 84.9206V85.7395L98.1634 87.9686C98.1634 87.9686 98.2124 87.5857 98.3019 87.0922C96.4701 86.5094 94.6659 85.4034 93.9332 84.9206Z" fill="black"/>
<path d="M93.4562 84.9184C93.4562 84.9184 96.6299 87.1475 99.3329 87.6176L93.8098 99.8223C93.8098 99.8223 93.6075 102.447 86.1674 103.202C85.4844 103.272 84.7943 103.2 84.1404 102.991C83.4865 102.782 82.8829 102.441 82.3675 101.988C81.0043 100.784 79.5708 98.8588 80.5293 96.5361C82.1737 92.5459 87.6989 96.7701 87.6989 96.7701C87.6989 96.7701 93.337 89.3788 93.4562 84.9184Z" fill="#575988"/>
<path d="M43.35 92.6862L100.502 131.838L43.35 170.988V92.6862Z" fill="#E8EAF1"/>
<path d="M157.652 92.6862L100.502 131.838L157.652 170.988V92.6862Z" fill="#E8EAF1"/>
<path d="M43.35 170.988L98.2592 128.326C98.898 127.823 99.6877 127.55 100.501 127.55C101.314 127.55 102.104 127.823 102.743 128.326L157.652 170.988H43.35Z" fill="url(#paint2_linear)"/>
<path d="M43.35 170.988L98.2592 130.192C98.9072 129.71 99.6934 129.45 100.501 129.45C101.309 129.45 102.095 129.71 102.743 130.192L157.652 170.988H43.35Z" fill="#E8EAF1"/>
</g>
<defs>
<linearGradient id="paint0_linear" x1="100.502" y1="172.425" x2="100.502" y2="38.0733" gradientUnits="userSpaceOnUse">
<stop stop-color="#808080" stop-opacity="0.25"/>
<stop offset="0.54" stop-color="#808080" stop-opacity="0.12"/>
<stop offset="1" stop-color="#808080" stop-opacity="0.1"/>
</linearGradient>
<linearGradient id="paint1_linear" x1="-35030.1" y1="82332.2" x2="-35030.1" y2="36317.9" gradientUnits="userSpaceOnUse">
<stop stop-color="#808080" stop-opacity="0.25"/>
<stop offset="0.54" stop-color="#808080" stop-opacity="0.12"/>
<stop offset="1" stop-color="#808080" stop-opacity="0.1"/>
</linearGradient>
<linearGradient id="paint2_linear" x1="65405.9" y1="36315.9" x2="65405.9" y2="27445.5" gradientUnits="userSpaceOnUse">
<stop stop-color="#808080" stop-opacity="0.25"/>
<stop offset="0.54" stop-color="#808080" stop-opacity="0.12"/>
<stop offset="1" stop-color="#808080" stop-opacity="0.1"/>
</linearGradient>
<clipPath id="clip0">
<rect width="213" height="179" fill="white"/>
</clipPath>
</defs>
</svg>
