<svg width="14" height="17" viewBox="0 0 14 17" fill="none" xmlns="http://www.w3.org/2000/svg">
<path d="M14 16.0898L12.2804 14.5741L10.2863 12.7214L10.7074 14.2027H1.63959C0.731476 14.1994 -0.00231852 13.4611 5.50515e-06 12.553V1.73784C-0.00138802 0.830385 0.732135 0.0930936 1.63959 0.0898438H12.3604C13.2679 0.0930936 14.0014 0.830385 14 1.73784V16.0898ZM10.1895 8.93869C9.83439 9.41492 9.32318 9.75115 8.74527 9.88858C8.98274 10.1917 9.26905 10.5345 9.27158 10.5378C10.2376 10.5583 11.1522 10.1039 11.7196 9.32184C11.6905 7.70055 11.2968 6.10661 10.5676 4.65827C9.92559 4.15449 9.14411 3.86048 8.32927 3.81616H8.32L8.208 3.94416C8.93584 4.13966 9.61459 4.48563 10.2004 4.95974C9.45502 4.54998 8.63702 4.28913 7.792 4.19174C7.25493 4.13209 6.71263 4.13746 6.17685 4.20774C6.13897 4.20849 6.10122 4.21243 6.064 4.21953H6.04043C5.41251 4.29183 4.79985 4.46233 4.22485 4.72479C3.93685 4.857 3.76001 4.953 3.75243 4.95637C3.74485 4.95974 3.75243 4.95637 3.75243 4.95048C4.37381 4.46175 5.09067 4.10863 5.85685 3.91384L5.77264 3.81784H5.76758C4.95276 3.86227 4.17132 4.15627 3.52927 4.65995C2.7974 6.1073 2.40351 7.70187 2.37727 9.32353C2.93755 10.1108 3.85348 10.5669 4.81937 10.5395C4.81937 10.5395 5.12085 10.1724 5.35579 9.87511C4.79243 9.73353 4.29602 9.40001 3.95201 8.93195C3.9579 8.93616 4.04127 8.99258 4.17601 9.06669C4.18506 9.07732 4.19625 9.08593 4.20885 9.09195C4.21952 9.09933 4.23079 9.10581 4.24253 9.11132C4.25585 9.11736 4.26854 9.12469 4.28043 9.13321C4.46831 9.23678 4.66333 9.32683 4.86401 9.40269C5.24554 9.55376 5.64019 9.66934 6.04295 9.74795C6.39558 9.81443 6.75359 9.84826 7.11242 9.849C7.44887 9.84897 7.78461 9.81796 8.11537 9.75637C8.51373 9.68642 8.90278 9.57114 9.27495 9.41279C9.59642 9.28914 9.90315 9.13013 10.1895 8.93869ZM8.47327 8.57911C8.10689 8.61106 7.75848 8.41482 7.59589 8.08495C7.4333 7.75508 7.48988 7.35922 7.73838 7.08811C7.98688 6.817 8.37632 6.72624 8.71907 6.85956C9.06182 6.99287 9.28758 7.32292 9.28758 7.69069C9.30614 8.1605 8.9421 8.55726 8.47242 8.57911H8.47327ZM5.55285 8.57911C5.09209 8.53895 4.7385 8.15319 4.7385 7.69069C4.7385 7.22818 5.09209 6.84243 5.55285 6.80227C5.76509 6.80291 5.96803 6.88949 6.11537 7.04226C6.28257 7.2158 6.37351 7.44893 6.368 7.68984C6.3875 8.16047 6.02341 8.55816 5.55285 8.57911Z" fill="#00EAF5"/>
</svg>
