<svg width="17" height="18" viewBox="0 0 17 18" fill="none" xmlns="http://www.w3.org/2000/svg">
<path d="M0 8.641C0.000988975 12.8482 3.04154 16.4305 7.1712 17.0898V11.1126H5.01483V8.641H7.17375V6.75949C7.07724 5.86794 7.37989 4.9794 7.99962 4.33484C8.61934 3.69029 9.49192 3.35652 10.3807 3.42408C11.0186 3.43444 11.655 3.49161 12.2846 3.59512V5.69814H11.2103C10.8404 5.6494 10.4685 5.77231 10.1995 6.03225C9.93036 6.2922 9.79317 6.66104 9.82651 7.03487V8.641H12.1818L11.8052 11.1135H9.82651V17.0898C14.2927 16.3797 17.4245 12.2755 16.9531 7.75076C16.4817 3.22598 12.5722 -0.135463 8.05672 0.10165C3.54128 0.338763 0.00071778 4.09142 0 8.641Z" fill="#00EAF5"/>
</svg>
