<svg width="46" height="37" viewBox="0 0 46 37" fill="none" xmlns="http://www.w3.org/2000/svg">
<path d="M22.3919 9.87228L7.66786 22.0321V35.1562C7.66786 35.496 7.80249 35.8219 8.04212 36.0621C8.28175 36.3024 8.60675 36.4374 8.94564 36.4374L17.8949 36.4142C18.2327 36.4125 18.556 36.2768 18.7943 36.0367C19.0325 35.7966 19.1663 35.4716 19.1663 35.1329V27.4687C19.1663 27.1288 19.3009 26.803 19.5405 26.5627C19.7801 26.3224 20.1052 26.1874 20.444 26.1874H25.5552C25.894 26.1874 26.2191 26.3224 26.4587 26.5627C26.6983 26.803 26.8329 27.1288 26.8329 27.4687V35.1273C26.8324 35.2959 26.8651 35.463 26.9291 35.6189C26.993 35.7748 27.0871 35.9165 27.2058 36.0359C27.3245 36.1553 27.4655 36.25 27.6208 36.3147C27.7761 36.3793 27.9426 36.4126 28.1107 36.4126L37.0568 36.4374C37.3956 36.4374 37.7207 36.3024 37.9603 36.0621C38.1999 35.8219 38.3345 35.496 38.3345 35.1562V22.0233L23.6137 9.87228C23.4407 9.73241 23.2251 9.65613 23.0028 9.65613C22.7805 9.65613 22.5649 9.73241 22.3919 9.87228ZM45.6498 18.1371L38.9734 12.619V1.52734C38.9734 1.27249 38.8725 1.02807 38.6927 0.847859C38.513 0.667648 38.2693 0.566406 38.0151 0.566406H33.5429C33.2887 0.566406 33.0449 0.667648 32.8652 0.847859C32.6855 1.02807 32.5845 1.27249 32.5845 1.52734V7.34182L25.4346 1.44326C24.7484 0.877093 23.8874 0.567538 22.9988 0.567538C22.1102 0.567538 21.2492 0.877093 20.563 1.44326L0.347794 18.1371C0.250753 18.2176 0.170467 18.3164 0.111523 18.4279C0.0525789 18.5395 0.0161326 18.6616 0.0042663 18.7873C-0.00759995 18.9129 0.00534643 19.0397 0.0423657 19.1604C0.079385 19.281 0.139752 19.3932 0.220016 19.4905L2.25647 21.9729C2.33652 22.0705 2.43498 22.1513 2.54621 22.2107C2.65744 22.2701 2.77926 22.3069 2.9047 22.319C3.03014 22.3311 3.15673 22.3183 3.27723 22.2813C3.39773 22.2444 3.50976 22.1839 3.60693 22.1034L22.3919 6.58908C22.5649 6.44921 22.7805 6.37293 23.0028 6.37293C23.2251 6.37293 23.4407 6.44921 23.6137 6.58908L42.3995 22.1034C42.4965 22.1839 42.6083 22.2444 42.7287 22.2816C42.849 22.3187 42.9754 22.3317 43.1008 22.3198C43.2261 22.3079 43.3479 22.2713 43.4591 22.2122C43.5704 22.1531 43.6689 22.0726 43.7491 21.9753L45.7856 19.4929C45.8658 19.3951 45.9259 19.2823 45.9625 19.1611C45.999 19.0399 46.0114 18.9127 45.9988 18.7867C45.9861 18.6607 45.9488 18.5385 45.8889 18.427C45.829 18.3155 45.7478 18.217 45.6498 18.1371Z" fill="#191C26"/>
</svg>
