<svg width="25" height="25" viewBox="0 0 25 25" fill="none" xmlns="http://www.w3.org/2000/svg">
<path d="M13.8889 25H8.33332V8.33333H13.8889V11.1111C15.0731 9.60452 16.8689 8.70635 18.7847 8.6625C22.2299 8.68163 25.01 11.4852 25 14.9306V25H19.4444V15.625C19.2222 14.0731 17.8913 12.9216 16.3236 12.925C15.6379 12.9467 14.9906 13.2469 14.5311 13.7564C14.0717 14.2659 13.8398 14.9407 13.8889 15.625V25ZM5.55554 25H0V8.33333H5.55554V25ZM2.77777 5.55556C1.24365 5.55556 0 4.3119 0 2.77778C0 1.24365 1.24365 0 2.77777 0C4.31189 0 5.55554 1.24365 5.55554 2.77778C5.55554 3.51449 5.26289 4.22103 4.74195 4.74196C4.22102 5.2629 3.51448 5.55556 2.77777 5.55556Z" fill="#00EAF5"/>
</svg>
