<?xml version="1.0" encoding="utf-8"?>
<!-- Generator: Adobe Illustrator 25.0.0, SVG Export Plug-In . SVG Version: 6.00 Build 0)  -->
<svg version="1.1" id="Warstwa_1" xmlns="http://www.w3.org/2000/svg" xmlns:xlink="http://www.w3.org/1999/xlink" x="0px" y="0px"
	 viewBox="0 0 211 33" style="enable-background:new 0 0 211 33;" xml:space="preserve">
<style type="text/css">
	.st0{fill:#FFFFFF;}
</style>
<path class="st0" d="M43.31,3.96l-0.66,0.66v23.76l0.66,0.66h0.63l0.66-0.66V7.15l17.23,21.65l0.52,0.25h0.98l0.66-0.66V4.62
	l-0.66-0.66H62.7l-0.66,0.66v21.23L44.87,4.21l-0.52-0.25L43.31,3.96z"/>
<path class="st0" d="M67.68,3.96l-0.66,0.66v23.76l0.66,0.66h14.8l0.66-0.66v-0.63l-0.66-0.66H68.94v-9.89h12.55l0.66-0.66V15.9
	l-0.66-0.66H68.94V5.91h13.53l0.66-0.66V4.62l-0.66-0.66L67.68,3.96z"/>
<path class="st0" d="M85.11,3.96l-0.66,0.66v0.6l0.66,0.66h8.4v22.5l0.66,0.66h0.6l0.66-0.66V5.88h8.43l0.66-0.66v-0.6l-0.66-0.66
	H85.11z"/>
<path class="st0" d="M107.71,3.96l-0.66,0.66v23.76l0.66,0.66h0.63l0.66-0.66V6.82l10.75,10.75h0.93l10.79-10.76v21.57l0.66,0.66
	h0.63l0.66-0.66V4.62l-0.66-0.66h-0.92l-0.47,0.19l-11.16,11.16L109.1,4.15l-0.47-0.19L107.71,3.96z"/>
<path class="st0" d="M147.9,3.96c-6.95,0-12.54,5.6-12.54,12.54c0,6.94,5.6,12.54,12.54,12.54c6.94,0,12.58-5.6,12.58-12.54
	C160.47,9.55,154.84,3.96,147.9,3.96z M147.9,5.88c5.92,0,10.65,4.7,10.65,10.62c0,5.92-4.73,10.62-10.65,10.62
	s-10.62-4.7-10.62-10.62C137.28,10.58,141.98,5.88,147.9,5.88z"/>
<path class="st0" d="M174.53,3.96c-6.94,0-12.54,5.6-12.54,12.54c0,6.94,5.6,12.54,12.54,12.54c6.94,0,12.58-5.6,12.58-12.54
	C187.1,9.55,181.47,3.96,174.53,3.96z M174.53,5.88c5.92,0,10.65,4.7,10.65,10.62c0,5.92-4.73,10.62-10.65,10.62
	c-5.92,0-10.62-4.7-10.62-10.62C163.91,10.58,168.6,5.88,174.53,5.88z"/>
<path class="st0" d="M190.31,3.96l-0.66,0.66v23.76l0.66,0.66h0.63l0.66-0.66V7.15l17.23,21.65l0.52,0.25h0.98l0.66-0.66V4.62
	l-0.66-0.66h-0.63l-0.66,0.66v21.23L191.88,4.21l-0.52-0.25L190.31,3.96z"/>
<path class="st0" d="M16.26,0.24c-4.31,0-8.45,1.71-11.5,4.76c-6.35,6.35-6.35,16.65,0,23c6.35,6.35,16.65,6.35,23,0
	c4.6-4.6,6.01-11.49,3.6-17.53c0.58,3.5-0.57,7.07-3.08,9.58c-3.49,3.49-8.89,4.23-13.19,1.81l4.44-4.02l3.73,0.18l2.13-1.92
	c0.2,0.13,0.42,0.2,0.65,0.21c0.73,0.04,1.36-0.53,1.39-1.26c0.02-0.35-0.11-0.7-0.34-0.96c-0.24-0.26-0.57-0.42-0.92-0.44
	c-0.35-0.02-0.7,0.11-0.96,0.34c-0.26,0.24-0.42,0.57-0.44,0.92c-0.01,0.23,0.04,0.46,0.14,0.67l-1.91,1.73l-2.76-0.14l3.04-2.75
	l0.12-2.41l1.34-1.21c0.47,0.37,1.05,0.6,1.69,0.63c1.65,0.08,3.07-1.21,3.15-2.86c0.08-1.65-1.21-3.07-2.86-3.15
	c-1.65-0.08-3.07,1.21-3.15,2.86c-0.01,0.3,0.02,0.59,0.09,0.87l-2.17,1.96l-0.12,2.41l-5.4,4.89l0.22-4.49l2.04-1.85
	c0.19,0.11,0.4,0.18,0.62,0.19c0.73,0.04,1.36-0.53,1.39-1.26c0.02-0.35-0.11-0.7-0.34-0.96C19.68,9.8,19.35,9.64,19,9.62
	c-0.73-0.04-1.36,0.53-1.39,1.26c-0.01,0.25,0.04,0.49,0.16,0.71l-1.52,1.37l0.18-3.71l3.46-3.13c0.2,0.13,0.42,0.2,0.65,0.21
	c0.35,0.02,0.7-0.11,0.96-0.34c0.26-0.24,0.42-0.57,0.44-0.92c0.04-0.73-0.53-1.36-1.26-1.39c-0.02,0-0.05,0-0.07,0
	c-0.71,0-1.29,0.56-1.32,1.26c-0.01,0.23,0.04,0.46,0.14,0.67l-3.67,3.32l-0.25,5.08l-1.67-1.84c0.1-0.18,0.16-0.38,0.17-0.59
	c0.02-0.35-0.11-0.7-0.34-0.96c-0.24-0.26-0.57-0.42-0.92-0.44c-0.35-0.02-0.7,0.11-0.96,0.34c-0.26,0.24-0.42,0.57-0.44,0.92
	c-0.02,0.35,0.11,0.7,0.34,0.96c0.24,0.26,0.57,0.42,0.92,0.44c0.21,0.01,0.41-0.03,0.6-0.11l2.23,2.46l-0.19,3.88l-1.82,1.65
	c-0.26-0.21-0.5-0.44-0.74-0.67c-2.07-2.07-3.23-4.87-3.23-7.79c0-2.92,1.16-5.72,3.23-7.79c2.51-2.51,6.08-3.66,9.59-3.08
	C20.37,0.64,18.32,0.24,16.26,0.24L16.26,0.24z M26.53,7.38h0.11c0.6,0.03,1.04,0.52,1.01,1.11c-0.03,0.6-0.52,1.04-1.11,1.01
	c-0.6-0.03-1.04-0.52-1.01-1.11C25.56,7.82,25.99,7.4,26.53,7.38z"/>
<path class="st0" d="M4.76,5c-6.35,6.35-6.35,16.65,0,23c6.35,6.35,16.65,6.35,23,0c4.6-4.6,6.01-11.49,3.6-17.53
	c0.58,3.5-0.57,7.07-3.08,9.58c-3.49,3.49-8.89,4.23-13.19,1.81l4.44-4.02l3.73,0.18l2.13-1.92c0.2,0.13,0.42,0.2,0.65,0.21
	c0.73,0.04,1.36-0.53,1.39-1.26c0.02-0.35-0.11-0.7-0.34-0.96c-0.24-0.26-0.57-0.42-0.92-0.44c-0.35-0.02-0.7,0.11-0.96,0.34
	c-0.26,0.24-0.42,0.57-0.44,0.92c-0.01,0.23,0.04,0.46,0.14,0.67l-1.91,1.73l-2.76-0.14l3.04-2.75l0.12-2.41l1.34-1.21
	c0.47,0.37,1.05,0.6,1.69,0.63c1.65,0.08,3.07-1.21,3.15-2.86c0.08-1.65-1.21-3.07-2.86-3.15c-1.65-0.08-3.07,1.21-3.15,2.86
	c-0.01,0.3,0.02,0.59,0.09,0.87l-2.17,1.96l-0.12,2.41l-5.4,4.89l0.22-4.49l2.04-1.85c0.19,0.11,0.4,0.18,0.62,0.19
	c0.73,0.04,1.36-0.53,1.39-1.26c0.02-0.35-0.11-0.7-0.34-0.96C19.68,9.8,19.35,9.64,19,9.62c-0.73-0.04-1.36,0.53-1.39,1.26
	c-0.01,0.25,0.04,0.49,0.16,0.71l-1.52,1.37l0.18-3.71l3.46-3.13c0.2,0.13,0.42,0.2,0.65,0.21c0.35,0.02,0.7-0.11,0.96-0.34
	c0.26-0.24,0.42-0.57,0.44-0.92c0.04-0.73-0.53-1.36-1.26-1.39c-0.02,0-0.05,0-0.07,0c-0.71,0-1.29,0.56-1.32,1.26
	c-0.01,0.23,0.04,0.46,0.14,0.67l-3.67,3.32l-0.25,5.08l-1.67-1.84c0.1-0.18,0.16-0.38,0.17-0.59c0.02-0.35-0.11-0.7-0.34-0.96
	c-0.24-0.26-0.57-0.42-0.92-0.44c-0.35-0.02-0.7,0.11-0.96,0.34c-0.26,0.24-0.42,0.57-0.44,0.92c-0.02,0.35,0.11,0.7,0.34,0.96
	c0.24,0.26,0.57,0.42,0.92,0.44c0.21,0.01,0.41-0.03,0.6-0.11l2.23,2.46l-0.19,3.88l-1.82,1.65c-0.26-0.21-0.5-0.44-0.74-0.67
	c-2.07-2.07-3.23-4.87-3.23-7.79c0-2.92,1.16-5.72,3.23-7.79c2.51-2.51,6.08-3.66,9.59-3.08c-1.92-0.77-3.97-1.16-6.03-1.16v0
	C11.95,0.24,7.81,1.95,4.76,5L4.76,5z M26.54,9.5c-0.6-0.03-1.04-0.52-1.01-1.11c0.03-0.56,0.46-0.98,1-1.01h0.11
	c0.6,0.03,1.04,0.52,1.01,1.11c-0.03,0.58-0.49,1.01-1.06,1.01C26.58,9.5,26.56,9.5,26.54,9.5z"/>
</svg>
