<svg width="50" height="50" viewBox="0 0 50 50" fill="none" xmlns="http://www.w3.org/2000/svg">
<g clip-path="url(#clip0)">
<path d="M37.4436 19.3857L36.3198 20.6141L41.4305 25.2991C42.6336 26.406 43.3194 27.9655 43.3198 29.5999V49.9999H44.9865V29.5999C44.9844 27.4978 44.1027 25.4932 42.5548 24.0705L37.4436 19.3857Z" fill="#A9AFC3"/>
<path d="M30.8197 0H9.15299C6.85299 0.00291667 4.98924 1.86667 4.98633 4.16667V45.8333C4.98924 48.1333 6.85299 49.9971 9.15299 50H29.9863V48.5092C29.9824 44.7552 31.0936 41.0838 33.1797 37.9625C33.4005 37.6317 33.3561 37.1915 33.0755 36.9108L27.2422 31.0775C26.703 30.5377 26.4172 29.7954 26.4549 29.0335C26.4928 28.2713 26.8509 27.5613 27.4405 27.0775C28.5761 26.2094 30.1822 26.3333 31.1713 27.3648L39.3972 35.5908L40.5755 34.4125L34.9863 28.8217V4.16667C34.9834 1.86667 33.1197 0.00291667 30.8197 0ZM33.3197 27.155L32.3497 26.185C30.7509 24.5517 28.1797 24.3815 26.3797 25.7904C25.4276 26.5729 24.8499 27.7217 24.7897 28.9531C24.7297 30.1844 25.1922 31.3838 26.0638 32.2558L31.4222 37.6144C29.4238 40.8346 28.3522 44.5438 28.3255 48.3333H9.15299C7.77258 48.3333 6.65299 47.2138 6.65299 45.8333V43.3333H27.4863V41.6667H6.65299V6.66667H33.3197V27.155ZM33.3197 5H6.65299V4.16667C6.65299 2.78625 7.77258 1.66667 9.15299 1.66667H30.8197C32.2001 1.66667 33.3197 2.78625 33.3197 4.16667V5Z" fill="#A9AFC3"/>
<path d="M9.98649 15.0002H13.3198C14.2405 15.0002 14.9865 14.2541 14.9865 13.3335V10.0002C14.9865 9.07954 14.2405 8.3335 13.3198 8.3335H9.98649C9.06587 8.3335 8.31982 9.07954 8.31982 10.0002V13.3335C8.31982 14.2541 9.06587 15.0002 9.98649 15.0002ZM9.98649 10.0002H13.3198V13.3335H9.98649V10.0002Z" fill="#A9AFC3"/>
<path d="M18.3195 15.0002H21.6528C22.5735 15.0002 23.3195 14.2541 23.3195 13.3335V10.0002C23.3195 9.07954 22.5735 8.3335 21.6528 8.3335H18.3195C17.3989 8.3335 16.6528 9.07954 16.6528 10.0002V13.3335C16.6528 14.2541 17.3989 15.0002 18.3195 15.0002ZM18.3195 10.0002H21.6528V13.3335H18.3195V10.0002Z" fill="#A9AFC3"/>
<path d="M26.653 15.0002H29.9863C30.9069 15.0002 31.653 14.2541 31.653 13.3335V10.0002C31.653 9.07954 30.9069 8.3335 29.9863 8.3335H26.653C25.7324 8.3335 24.9863 9.07954 24.9863 10.0002V13.3335C24.9863 14.2541 25.7324 15.0002 26.653 15.0002ZM26.653 10.0002H29.9863V13.3335H26.653V10.0002Z" fill="#A9AFC3"/>
<path d="M9.98649 23.3332H13.3198C14.2405 23.3332 14.9865 22.5871 14.9865 21.6665V18.3332C14.9865 17.4125 14.2405 16.6665 13.3198 16.6665H9.98649C9.06587 16.6665 8.31982 17.4125 8.31982 18.3332V21.6665C8.31982 22.5871 9.06587 23.3332 9.98649 23.3332ZM9.98649 18.3332H13.3198V21.6665H9.98649V18.3332Z" fill="#A9AFC3"/>
<path d="M9.98649 31.6667H13.3198C14.2405 31.6667 14.9865 30.9206 14.9865 30V26.6667C14.9865 25.746 14.2405 25 13.3198 25H9.98649C9.06587 25 8.31982 25.746 8.31982 26.6667V30C8.31982 30.9206 9.06587 31.6667 9.98649 31.6667ZM9.98649 26.6667H13.3198V30H9.98649V26.6667Z" fill="#A9AFC3"/>
<path d="M18.3195 23.3332H21.6528C22.5735 23.3332 23.3195 22.5871 23.3195 21.6665V18.3332C23.3195 17.4125 22.5735 16.6665 21.6528 16.6665H18.3195C17.3989 16.6665 16.6528 17.4125 16.6528 18.3332V21.6665C16.6528 22.5871 17.3989 23.3332 18.3195 23.3332ZM18.3195 18.3332H21.6528V21.6665H18.3195V18.3332Z" fill="#A9AFC3"/>
<path d="M26.653 23.3332H29.9863C30.9069 23.3332 31.653 22.5871 31.653 21.6665V18.3332C31.653 17.4125 30.9069 16.6665 29.9863 16.6665H26.653C25.7324 16.6665 24.9863 17.4125 24.9863 18.3332V21.6665C24.9863 22.5871 25.7324 23.3332 26.653 23.3332ZM26.653 18.3332H29.9863V21.6665H26.653V18.3332Z" fill="#A9AFC3"/>
<path d="M18.3195 31.6667H21.6528C22.5735 31.6667 23.3195 30.9206 23.3195 30V26.6667C23.3195 25.746 22.5735 25 21.6528 25H18.3195C17.3989 25 16.6528 25.746 16.6528 26.6667V30C16.6528 30.9206 17.3989 31.6667 18.3195 31.6667ZM18.3195 26.6667H21.6528V30H18.3195V26.6667Z" fill="#A9AFC3"/>
<path d="M9.98649 40.0002H13.3198C14.2405 40.0002 14.9865 39.2541 14.9865 38.3335V35.0002C14.9865 34.0795 14.2405 33.3335 13.3198 33.3335H9.98649C9.06587 33.3335 8.31982 34.0795 8.31982 35.0002V38.3335C8.31982 39.2541 9.06587 40.0002 9.98649 40.0002ZM9.98649 35.0002H13.3198V38.3335H9.98649V35.0002Z" fill="#A9AFC3"/>
<path d="M18.3195 40.0002H21.6528C22.5735 40.0002 23.3195 39.2541 23.3195 38.3335V35.0002C23.3195 34.0795 22.5735 33.3335 21.6528 33.3335H18.3195C17.3989 33.3335 16.6528 34.0795 16.6528 35.0002V38.3335C16.6528 39.2541 17.3989 40.0002 18.3195 40.0002ZM18.3195 35.0002H21.6528V38.3335H18.3195V35.0002Z" fill="#A9AFC3"/>
<path d="M19.1528 45H20.8195V46.6667H19.1528V45Z" fill="#A9AFC3"/>
</g>
<defs>
<clipPath id="clip0">
<rect width="50" height="50" fill="white"/>
</clipPath>
</defs>
</svg>
