<svg width="72" height="89" viewBox="0 0 72 89" fill="none" xmlns="http://www.w3.org/2000/svg">
<path d="M57.7791 34.4938L55.8057 36.6508L64.7804 44.8782C66.8932 46.8219 68.0976 49.5607 68.0983 52.4308V88.2552H71.0252V52.4308C71.0215 48.7394 69.4732 45.2191 66.7549 42.7207L57.7791 34.4938Z" fill="#00EAF5"/>
<path d="M46.1471 0.450378H8.09832C4.0593 0.4555 0.786372 3.72843 0.78125 7.76745V80.9382C0.786372 84.9772 4.0593 88.2501 8.09832 88.2553H44.6837V85.6372C44.6767 79.0449 46.6282 72.5975 50.2915 67.1162C50.6793 66.5353 50.6014 65.7622 50.1086 65.2694L39.8647 55.0255C38.9178 54.0776 38.4159 52.774 38.4821 51.4361C38.5487 50.0975 39.1776 48.8506 40.213 48.0011C42.2072 46.4766 45.0276 46.6943 46.7647 48.5056L61.21 62.9514L63.2793 60.8821L53.4642 51.064V7.76745C53.4591 3.72843 50.1861 0.4555 46.1471 0.450378ZM50.5373 48.1372L48.8339 46.4338C46.0264 43.5655 41.511 43.2666 38.35 45.7409C36.6781 47.115 35.6636 49.1323 35.5578 51.2949C35.4525 53.4571 36.2647 55.5633 37.7954 57.0948L47.2051 66.5049C43.6959 72.1599 41.8139 78.6735 41.7671 85.3284H8.09832C5.67418 85.3284 3.70808 83.3623 3.70808 80.9382V76.5479H40.2934V73.6211H3.70808V12.1577H50.5373V48.1372ZM50.5373 9.23087H3.70808V7.76745C3.70808 5.34331 5.67418 3.37721 8.09832 3.37721H46.1471C48.5712 3.37721 50.5373 5.34331 50.5373 7.76745V9.23087Z" fill="#00EAF5"/>
<path d="M9.5616 26.7919H15.4153C17.032 26.7919 18.3421 25.4817 18.3421 23.865V18.0114C18.3421 16.3947 17.032 15.0845 15.4153 15.0845H9.5616C7.94489 15.0845 6.63477 16.3947 6.63477 18.0114V23.865C6.63477 25.4817 7.94489 26.7919 9.5616 26.7919ZM9.5616 18.0114H15.4153V23.865H9.5616V18.0114Z" fill="#00EAF5"/>
<path d="M24.1954 26.7919H30.0491C31.6658 26.7919 32.9759 25.4817 32.9759 23.865V18.0114C32.9759 16.3947 31.6658 15.0845 30.0491 15.0845H24.1954C22.5787 15.0845 21.2686 16.3947 21.2686 18.0114V23.865C21.2686 25.4817 22.5787 26.7919 24.1954 26.7919ZM24.1954 18.0114H30.0491V23.865H24.1954V18.0114Z" fill="#00EAF5"/>
<path d="M38.8301 26.7919H44.6838C46.3005 26.7919 47.6106 25.4817 47.6106 23.865V18.0114C47.6106 16.3947 46.3005 15.0845 44.6838 15.0845H38.8301C37.2134 15.0845 35.9033 16.3947 35.9033 18.0114V23.865C35.9033 25.4817 37.2134 26.7919 38.8301 26.7919ZM38.8301 18.0114H44.6838V23.865H38.8301V18.0114Z" fill="#00EAF5"/>
<path d="M9.5616 41.426H15.4153C17.032 41.426 18.3421 40.1159 18.3421 38.4992V32.6455C18.3421 31.0288 17.032 29.7187 15.4153 29.7187H9.5616C7.94489 29.7187 6.63477 31.0288 6.63477 32.6455V38.4992C6.63477 40.1159 7.94489 41.426 9.5616 41.426ZM9.5616 32.6455H15.4153V38.4992H9.5616V32.6455Z" fill="#00EAF5"/>
<path d="M9.5616 56.0602H15.4153C17.032 56.0602 18.3421 54.75 18.3421 53.1333V47.2797C18.3421 45.663 17.032 44.3528 15.4153 44.3528H9.5616C7.94489 44.3528 6.63477 45.663 6.63477 47.2797V53.1333C6.63477 54.75 7.94489 56.0602 9.5616 56.0602ZM9.5616 47.2797H15.4153V53.1333H9.5616V47.2797Z" fill="#00EAF5"/>
<path d="M24.1954 41.426H30.0491C31.6658 41.426 32.9759 40.1159 32.9759 38.4992V32.6455C32.9759 31.0288 31.6658 29.7187 30.0491 29.7187H24.1954C22.5787 29.7187 21.2686 31.0288 21.2686 32.6455V38.4992C21.2686 40.1159 22.5787 41.426 24.1954 41.426ZM24.1954 32.6455H30.0491V38.4992H24.1954V32.6455Z" fill="#00EAF5"/>
<path d="M38.8301 41.426H44.6838C46.3005 41.426 47.6106 40.1159 47.6106 38.4992V32.6455C47.6106 31.0288 46.3005 29.7187 44.6838 29.7187H38.8301C37.2134 29.7187 35.9033 31.0288 35.9033 32.6455V38.4992C35.9033 40.1159 37.2134 41.426 38.8301 41.426ZM38.8301 32.6455H44.6838V38.4992H38.8301V32.6455Z" fill="#00EAF5"/>
<path d="M24.1954 56.0602H30.0491C31.6658 56.0602 32.9759 54.75 32.9759 53.1333V47.2797C32.9759 45.663 31.6658 44.3528 30.0491 44.3528H24.1954C22.5787 44.3528 21.2686 45.663 21.2686 47.2797V53.1333C21.2686 54.75 22.5787 56.0602 24.1954 56.0602ZM24.1954 47.2797H30.0491V53.1333H24.1954V47.2797Z" fill="#00EAF5"/>
<path d="M9.5616 70.6943H15.4153C17.032 70.6943 18.3421 69.3842 18.3421 67.7674V61.9138C18.3421 60.2971 17.032 58.9869 15.4153 58.9869H9.5616C7.94489 58.9869 6.63477 60.2971 6.63477 61.9138V67.7674C6.63477 69.3842 7.94489 70.6943 9.5616 70.6943ZM9.5616 61.9138H15.4153V67.7674H9.5616V61.9138Z" fill="#00EAF5"/>
<path d="M24.1954 70.6943H30.0491C31.6658 70.6943 32.9759 69.3842 32.9759 67.7674V61.9138C32.9759 60.2971 31.6658 58.9869 30.0491 58.9869H24.1954C22.5787 58.9869 21.2686 60.2971 21.2686 61.9138V67.7674C21.2686 69.3842 22.5787 70.6943 24.1954 70.6943ZM24.1954 61.9138H30.0491V67.7674H24.1954V61.9138Z" fill="#00EAF5"/>
<path d="M25.6592 79.4747H28.586V82.4016H25.6592V79.4747Z" fill="#00EAF5"/>
</svg>
