<svg width="18" height="19" viewBox="0 0 18 19" fill="none" xmlns="http://www.w3.org/2000/svg">
<path d="M13.1963 15.8442H13.1753C10.294 15.7733 7.54447 14.6228 5.47126 12.6207C3.4684 10.5494 2.31728 7.80085 2.24618 4.92043C2.24193 4.51693 2.40036 4.1287 2.68576 3.84343L4.72126 1.80943C5.01414 1.51665 5.48889 1.51665 5.78176 1.80943L8.78176 4.80943C9.07455 5.10231 9.07455 5.57706 8.78176 5.86993L7.58476 7.06468C7.80677 7.89412 8.21572 8.66173 8.78026 9.30868C9.42605 9.87343 10.1927 10.2827 11.0213 10.5049L12.2213 9.30943C12.5141 9.01665 12.9889 9.01665 13.2818 9.30943L16.2818 12.3094C16.5745 12.6023 16.5745 13.0771 16.2818 13.3699L14.2463 15.4047C13.9687 15.6851 13.5908 15.8433 13.1963 15.8442ZM5.25001 3.40093H5.24626L3.74626 4.90393C3.80742 7.39293 4.801 9.76821 6.53026 11.5594C8.32159 13.2881 10.6964 14.2816 13.185 14.3434L14.6903 12.8397L12.7463 10.9009L11.7765 11.8699C11.6378 12.0102 11.4488 12.0893 11.2515 12.0897C11.1988 12.0897 11.1463 12.0842 11.0948 12.0732C9.84499 11.7967 8.68455 11.2111 7.71976 10.3699C6.8786 9.40514 6.29297 8.24471 6.01651 6.99493C5.96436 6.74651 6.04141 6.48856 6.22126 6.30943L7.19026 5.33968L5.25001 3.40093Z" fill="#00EAF5"/>
</svg>
