<svg width="52" height="33" viewBox="0 0 52 33" fill="none" xmlns="http://www.w3.org/2000/svg">
<path d="M0.88 19.496C0.88 17.096 1.648 14.36 3.184 11.288C4.72 8.12 6.64 5.48 8.944 3.368C11.344 1.16 13.792 0.055995 16.288 0.055995C20.032 0.055995 21.904 1.63999 21.904 4.80799C21.904 6.05599 21.568 6.96799 20.896 7.54399C20.32 8.02399 19.552 8.40799 18.592 8.696C17.632 8.984 16.912 9.224 16.432 9.41599C13.744 10.952 12.4 13.112 12.4 15.896C12.4 16.952 12.784 17.864 13.552 18.632C14.416 19.304 15.52 19.64 16.864 19.64C18.496 19.64 19.84 19.304 20.896 18.632C21.856 19.112 22.576 19.736 23.056 20.504C23.536 21.176 23.728 22.088 23.632 23.24C23.632 25.64 22.384 27.752 19.888 29.576C17.488 31.304 14.944 32.168 12.256 32.168C8.8 32.168 6.016 31.064 3.904 28.856C1.888 26.648 0.88 23.528 0.88 19.496ZM29.104 19.496C29.104 17.096 29.872 14.36 31.408 11.288C32.944 8.12 34.864 5.48 37.168 3.368C39.568 1.16 42.016 0.055995 44.512 0.055995C48.256 0.055995 50.128 1.63999 50.128 4.80799C50.128 6.05599 49.792 6.96799 49.12 7.54399C48.544 8.02399 47.776 8.40799 46.816 8.696C45.856 8.984 45.136 9.224 44.656 9.41599C41.968 10.952 40.624 13.112 40.624 15.896C40.624 16.952 41.008 17.864 41.776 18.632C42.64 19.304 43.744 19.64 45.088 19.64C46.72 19.64 48.064 19.304 49.12 18.632C50.08 19.112 50.8 19.736 51.28 20.504C51.76 21.176 51.952 22.088 51.856 23.24C51.856 25.64 50.608 27.752 48.112 29.576C45.712 31.304 43.168 32.168 40.48 32.168C37.024 32.168 34.24 31.064 32.128 28.856C30.112 26.648 29.104 23.528 29.104 19.496Z" fill="#00EAF5"/>
</svg>
