<svg width="385" height="356" viewBox="0 0 385 356" fill="none" xmlns="http://www.w3.org/2000/svg">
<g clip-path="url(#clip0)">
<path d="M23.3347 28.4315C17.1481 28.4386 11.2169 30.901 6.84235 35.2785C2.46776 39.6559 0.00703667 45.5911 0 51.7818V320.79C0.00709727 326.981 2.46786 332.916 6.84244 337.293C11.217 341.671 17.1482 344.133 23.3347 344.14H220.541C226.727 344.133 232.658 341.671 237.033 337.293C241.408 332.916 243.868 326.981 243.875 320.79V51.7817C243.868 45.5911 241.408 39.656 237.033 35.2785C232.659 30.901 226.727 28.4387 220.541 28.4315H23.3347Z" fill="#3F3D56"/>
<path d="M231.741 45.0166H12.1348V327.555H231.741V45.0166Z" fill="white"/>
<path d="M203.033 95.6602H40.8438V106.322H203.033V95.6602Z" fill="#63FFF2"/>
<path d="M203.033 124.092H40.8438V134.754H203.033V124.092Z" fill="#63FFF2"/>
<path d="M203.033 152.523H40.8438V163.185H203.033V152.523Z" fill="#63FFF2"/>
<path d="M203.033 180.955H40.8438V191.617H203.033V180.955Z" fill="#63FFF2"/>
<path d="M203.033 209.386H40.8438V220.048H203.033V209.386Z" fill="#63FFF2"/>
<path d="M203.033 237.818H40.8438V248.48H203.033V237.818Z" fill="#63FFF2"/>
<path d="M203.033 266.249H40.8438V276.911H203.033V266.249Z" fill="#63FFF2"/>
<path d="M205.316 27.1016L44.4902 56.5526L82.3307 263.466L243.156 234.014L205.316 27.1016Z" fill="#E6E6E6"/>
<path d="M191.074 68.0398L72.2969 89.7907L73.7248 97.5987L192.502 75.8478L191.074 68.0398Z" fill="#63FFF2"/>
<path d="M194.881 88.8612L76.1045 110.612L77.5324 118.42L196.309 96.6693L194.881 88.8612Z" fill="#63FFF2"/>
<path d="M198.689 109.683L79.9121 131.434L81.3401 139.242L200.117 117.491L198.689 109.683Z" fill="#63FFF2"/>
<path d="M202.497 130.504L83.7207 152.255L85.1486 160.063L203.925 138.312L202.497 130.504Z" fill="#63FFF2"/>
<path d="M206.303 151.326L87.5264 173.076L88.9543 180.884L207.731 159.134L206.303 151.326Z" fill="#63FFF2"/>
<path d="M210.113 172.147L91.3359 193.898L92.7639 201.706L211.541 179.955L210.113 172.147Z" fill="#63FFF2"/>
<path d="M213.92 192.968L95.1436 214.719L96.5715 222.527L215.348 200.776L213.92 192.968Z" fill="#63FFF2"/>
<path d="M319.15 253.448L273.644 261.782L284.351 320.329L329.857 311.995L319.15 253.448Z" fill="#E6E6E6"/>
<path d="M315.12 265.032L281.512 271.187L281.916 273.396L315.524 267.241L315.12 265.032Z" fill="white"/>
<path d="M316.197 270.924L282.589 277.078L282.993 279.287L316.601 273.133L316.197 270.924Z" fill="white"/>
<path d="M317.275 276.815L283.667 282.97L284.071 285.179L317.679 279.024L317.275 276.815Z" fill="white"/>
<path d="M318.352 282.707L284.744 288.861L285.148 291.07L318.757 284.916L318.352 282.707Z" fill="white"/>
<path d="M319.43 288.598L285.821 294.753L286.225 296.962L319.834 290.807L319.43 288.598Z" fill="white"/>
<path d="M320.508 294.49L286.899 300.644L287.303 302.853L320.912 296.699L320.508 294.49Z" fill="white"/>
<path d="M321.585 300.381L287.977 306.536L288.381 308.745L321.989 302.59L321.585 300.381Z" fill="white"/>
<path d="M162.599 14.8081H143.247V10.8437C143.247 7.96778 142.105 5.20964 140.073 3.17605C138.041 1.14246 135.284 0 132.41 0H111.464C108.59 2.58503e-06 105.834 1.14246 103.802 3.17605C101.77 5.20964 100.628 7.96779 100.628 10.8437V14.8081H81.276C79.8529 14.8081 78.4437 15.0886 77.129 15.6335C75.8143 16.1785 74.6197 16.9772 73.6134 17.9841C72.6071 18.9911 71.8089 20.1865 71.2643 21.5021C70.7197 22.8177 70.4395 24.2278 70.4395 25.6518V55.6784H173.435V25.6518C173.435 24.2278 173.155 22.8177 172.61 21.5021C172.066 20.1865 171.268 18.9911 170.261 17.9841C169.255 16.9772 168.061 16.1785 166.746 15.6335C165.431 15.0886 164.022 14.8081 162.599 14.8081Z" fill="#3F3D56"/>
<path d="M114.99 307.009C118.19 304.818 121.478 302.539 125.278 301.543C128.745 300.634 132.725 300.875 135.467 303.415C137.68 305.464 138.614 308.615 136.975 311.312C136.623 311.927 136.145 312.461 135.572 312.878C135 313.295 134.345 313.585 133.652 313.731C132.982 313.819 132.301 313.737 131.672 313.491C131.043 313.245 130.486 312.844 130.054 312.324C129.194 311.374 128.68 309.969 129.137 308.716C129.617 307.398 130.902 306.593 132.164 306.143C133.633 305.677 135.146 305.365 136.679 305.21L142.957 304.35L168.657 300.829L197.277 296.908C197.503 296.844 197.695 296.694 197.811 296.489C197.927 296.285 197.958 296.043 197.897 295.816C197.829 295.592 197.678 295.402 197.475 295.287C197.272 295.171 197.032 295.138 196.805 295.195L139.857 302.996C137.797 303.278 135.708 303.48 133.67 303.895C132.065 304.155 130.544 304.787 129.227 305.741C126.499 307.903 126.694 311.725 129.205 313.986C131.746 316.275 135.431 315.881 137.661 313.353C138.788 312.074 139.458 310.455 139.563 308.752C139.668 307.05 139.203 305.361 138.242 303.952C135.808 300.279 131.372 298.867 127.133 299.388C122.231 299.991 118.075 302.748 114.094 305.475C113.157 306.116 114.044 307.657 114.99 307.009Z" fill="#3F3D56"/>
<path d="M314.812 241.155L315.404 247.078C315.404 247.078 311.853 260.109 319.548 260.109C327.243 260.109 321.324 247.078 321.324 247.078L321.915 242.34L314.812 241.155Z" fill="#A0616A"/>
<path d="M368.578 221.421L365.862 226.717C365.862 226.717 355.81 235.732 362.272 239.912C368.735 244.092 370.833 229.933 370.833 229.933L373.9 226.274L368.578 221.421Z" fill="#A0616A"/>
<path d="M324.283 246.486L332.57 302.757L336.714 343.035C336.714 343.035 340.265 351.92 352.104 344.219L350.328 321.119L349.144 300.387C349.144 300.387 347.96 280.248 346.777 276.694C345.593 273.141 347.369 261.294 347.369 261.294L352.104 241.747L324.283 246.486Z" fill="#2F2E41"/>
<path d="M337.898 341.85L333.162 347.181C333.162 347.181 326.059 344.812 324.283 349.55C322.507 354.289 337.898 355.473 337.898 355.473C337.898 355.473 353.88 356.658 353.88 355.473C353.88 354.289 353.452 345.229 351.298 344.724C349.144 344.219 337.898 341.85 337.898 341.85Z" fill="#2F2E41"/>
<path d="M346.776 243.524L355.063 302.757L359.207 343.035C359.207 343.035 362.759 351.92 374.597 344.219L372.821 321.119L371.637 300.387C371.637 300.387 370.454 280.248 369.27 276.694C368.086 273.141 369.862 261.294 369.862 261.294L368.678 239.378L346.776 243.524Z" fill="#2F2E41"/>
<path d="M360.391 341.85L355.655 347.181C355.655 347.181 348.552 344.812 346.776 349.55C345.001 354.289 360.391 355.473 360.391 355.473C360.391 355.473 376.373 356.658 376.373 355.473C376.373 354.289 375.945 345.229 373.791 344.724C371.638 344.219 360.391 341.85 360.391 341.85Z" fill="#2F2E41"/>
<path d="M329.018 149.937C335.884 149.937 341.449 144.368 341.449 137.498C341.449 130.629 335.884 125.06 329.018 125.06C322.153 125.06 316.588 130.629 316.588 137.498C316.588 144.368 322.153 149.937 329.018 149.937Z" fill="#A0616A"/>
<path d="M338.194 143.125L343.521 152.011L329.907 157.934L328.131 147.272L338.194 143.125Z" fill="#A0616A"/>
<path d="M345 151.122C345 151.122 332.57 149.937 327.834 157.637L316.151 166.523C315.205 167.242 314.466 168.199 314.009 169.297C313.552 170.395 313.394 171.594 313.549 172.773L323.691 249.448L338.489 248.855L362.758 244.117L369.861 242.34L366.31 210.947C366.31 210.947 362.166 198.508 366.902 190.215L364.534 161.191L347.96 154.676L345 151.122Z" fill="#575A89"/>
<path d="M317.18 168.892L316.292 167.411C316.292 167.411 315.108 167.411 315.108 169.78C315.108 172.149 313.036 223.385 313.036 223.385L312.444 242.932L323.691 244.117L327.835 207.393L326.059 183.107L317.18 168.892Z" fill="#575A89"/>
<path d="M356.247 160.007L364.534 161.191C367.763 164.575 370.548 168.357 372.821 172.446C376.373 178.961 387.027 191.4 384.66 200.877C382.292 210.354 375.189 227.532 375.189 227.532L363.942 222.793C363.942 222.793 372.821 202.062 372.229 200.285C371.637 198.508 364.534 187.846 364.534 187.846L356.247 160.007Z" fill="#575A89"/>
<path d="M320.436 130.687C320.436 130.687 310.373 130.094 316.884 123.579C316.884 123.579 322.212 121.21 324.579 122.394C324.579 122.394 328.131 120.025 328.131 121.21C328.131 121.21 340.562 117.656 342.337 130.094C344.113 142.533 341.153 148.456 341.153 148.456L332.866 147.864C332.866 147.864 334.642 137.795 328.131 138.979C328.131 138.979 322.804 140.756 322.212 138.979C321.62 137.202 320.436 130.687 320.436 130.687Z" fill="#2F2E41"/>
<path opacity="0.2" d="M325.171 243.228L330.498 207.689L326.947 185.773L328.13 209.611L324.579 243.228H325.171Z" fill="black"/>
</g>
<defs>
<clipPath id="clip0">
<rect width="385" height="356" fill="white"/>
</clipPath>
</defs>
</svg>
