<svg width="84" height="84" viewBox="0 0 84 84" fill="none" xmlns="http://www.w3.org/2000/svg">
<path d="M5.25 73.5C5.25 76.4039 7.59609 78.75 10.5 78.75H36.75V52.5H5.25V73.5ZM47.25 78.75H73.5C76.4039 78.75 78.75 76.4039 78.75 73.5V52.5H47.25V78.75ZM78.75 26.25H71.843C72.8602 24.2648 73.5 22.0664 73.5 19.6875C73.5 11.7305 67.0195 5.25 59.0625 5.25C52.2375 5.25 47.8242 8.74453 42.1641 16.4555C36.5039 8.74453 32.0906 5.25 25.2656 5.25C17.3086 5.25 10.8281 11.7305 10.8281 19.6875C10.8281 22.0664 11.4516 24.2648 12.4852 26.25H5.25C2.34609 26.25 0 28.5961 0 31.5V44.625C0 46.0687 1.18125 47.25 2.625 47.25H81.375C82.8187 47.25 84 46.0687 84 44.625V31.5C84 28.5961 81.6539 26.25 78.75 26.25ZM25.2492 26.25C21.6234 26.25 18.6867 23.3133 18.6867 19.6875C18.6867 16.0617 21.6234 13.125 25.2492 13.125C28.5141 13.125 30.9258 13.6664 39.375 26.25H25.2492ZM59.0625 26.25H44.9367C53.3695 13.6992 55.7156 13.125 59.0625 13.125C62.6883 13.125 65.625 16.0617 65.625 19.6875C65.625 23.3133 62.6883 26.25 59.0625 26.25Z" fill="#00EAF5"/>
</svg>
