<svg width="84" height="84" viewBox="0 0 84 84" fill="none" xmlns="http://www.w3.org/2000/svg">
<g clip-path="url(#clip0)">
<path d="M17.9581 40.0368L40.0377 17.9605L32.7992 10.7221L22.6799 20.8415C22.5592 20.9624 22.4158 21.0583 22.2581 21.1237C22.1003 21.1892 21.9311 21.2229 21.7603 21.2229C21.5895 21.2229 21.4203 21.1892 21.2625 21.1237C21.1047 21.0583 20.9614 20.9624 20.8407 20.8415L19.0016 19.0023C18.493 18.4937 18.493 17.6701 19.0016 17.1632L29.1209 7.0438L23.6019 1.5231C21.5692 -0.509639 18.2748 -0.509639 16.242 1.5231L1.52399 16.2411C-0.5071 18.2739 -0.50874 21.5682 1.52399 23.601L17.9581 40.0368ZM81.6915 20.8743C84.7693 17.7965 84.7677 12.8073 81.6915 9.7295L74.2677 2.30567C71.1898 -0.772139 66.1991 -0.772139 63.1196 2.30567L55.5695 9.85419L74.1413 28.4261L81.6915 20.8743ZM51.8567 13.5686L3.13017 62.2886L0.0523534 79.9154C-0.362725 82.2927 1.70774 84.3632 4.08665 83.9448L21.7152 80.8539L70.4286 32.1388L51.8567 13.5686ZM82.4757 60.3969L76.9566 54.8779L66.8373 64.9972C66.3287 65.5058 65.5051 65.5058 64.9981 64.9972L63.159 63.1581C62.652 62.6495 62.652 61.8259 63.159 61.319L73.2784 51.1996L66.0367 43.9579L43.9571 66.0341L60.3978 82.4732C62.4306 84.5059 65.7249 84.5059 67.7577 82.4732L82.4757 67.7568C84.5084 65.724 84.5084 62.4297 82.4757 60.3969Z" fill="#00EAF5"/>
</g>
<defs>
<clipPath id="clip0">
<rect width="84" height="84" fill="white"/>
</clipPath>
</defs>
</svg>
