<svg width="18" height="15" viewBox="0 0 18 15" fill="none" xmlns="http://www.w3.org/2000/svg">
<path d="M15.8797 2.29735C16.6511 1.85579 17.2283 1.1605 17.5035 0.341311C16.7786 0.753119 15.9856 1.04321 15.1586 1.19903C14.0121 0.0377105 12.1955 -0.244903 10.7239 0.509111C9.25237 1.26313 8.49015 2.8671 8.86318 4.42477C5.89411 4.28204 3.1279 2.93913 1.25289 0.730211C0.274363 2.34631 0.774412 4.41223 2.39564 5.4514C1.80939 5.43335 1.23614 5.28137 0.723683 5.00812C0.723683 5.02295 0.723683 5.03778 0.723683 5.05261C0.724022 6.73605 1.96313 8.18613 3.68639 8.51976C3.14261 8.66142 2.57222 8.68227 2.01874 8.58073C2.50337 10.0204 3.88909 11.0067 5.4685 11.0361C4.16039 12.0191 2.54492 12.5523 0.882016 12.5497C0.587268 12.5501 0.292752 12.5338 0 12.501C1.68864 13.5401 3.65401 14.0916 5.66125 14.0896C8.4538 14.108 11.1375 13.0538 13.1121 11.163C15.0867 9.27213 16.1874 6.70235 16.168 4.02845C16.168 3.8752 16.1643 3.72277 16.1568 3.57116C16.88 3.0707 17.5042 2.45073 18 1.74036C17.3262 2.02632 16.6116 2.21407 15.8797 2.29735Z" fill="#00EAF5"/>
</svg>
