<svg width="515" height="321" viewBox="0 0 515 321" fill="none" xmlns="http://www.w3.org/2000/svg">
<g clip-path="url(#clip0)">
<path d="M134.595 195.631C188.706 195.631 232.571 151.837 232.571 97.8155C232.571 43.7935 188.706 0 134.595 0C80.4846 0 36.6191 43.7935 36.6191 97.8155C36.6191 151.837 80.4846 195.631 134.595 195.631Z" fill="#F2F2F2"/>
<path d="M0 23.4858C0 59.075 22.3634 87.8733 50.0004 87.8733L0 23.4858Z" fill="#2F2E41"/>
<path d="M50 87.8731C50 51.8841 74.9563 22.7622 105.798 22.7622L50 87.8731Z" fill="#63FFFD"/>
<path d="M18.1172 26.7124C18.1172 60.5183 32.3779 87.8736 50.0015 87.8736L18.1172 26.7124Z" fill="#63FFFD"/>
<path d="M50 87.8735C50 41.8875 78.8456 4.67627 114.493 4.67627L50 87.8735Z" fill="#2F2E41"/>
<path d="M39.4805 88.3272C39.4805 88.3272 46.5713 88.1092 48.7084 86.59C50.8454 85.0707 59.6159 83.2567 60.146 85.6932C60.6762 88.1297 70.8023 97.8114 62.7968 97.8759C54.7912 97.9403 44.1954 96.6309 42.0625 95.3338C39.9296 94.0367 39.4805 88.3272 39.4805 88.3272Z" fill="#A8A8A8"/>
<path opacity="0.2" d="M62.9396 97.0275C54.9341 97.092 44.3383 95.7826 42.2054 94.4855C40.581 93.4977 39.9338 89.9532 39.7172 88.3179C39.5672 88.3243 39.4805 88.3271 39.4805 88.3271C39.4805 88.3271 39.9296 94.0365 42.0625 95.3336C44.1954 96.6307 54.7912 97.9402 62.7968 97.8757C65.1076 97.8571 65.9059 97.0362 65.862 95.8205C65.541 96.5551 64.6596 97.0137 62.9396 97.0275Z" fill="black"/>
<path d="M91.3565 206.625C138.862 206.625 177.373 201.394 177.373 194.942C177.373 188.49 138.862 183.259 91.3565 183.259C43.8508 183.259 5.33984 188.49 5.33984 194.942C5.33984 201.394 43.8508 206.625 91.3565 206.625Z" fill="#3F3D56"/>
<path opacity="0.1" d="M91.3558 204.75C131.24 204.75 163.573 200.359 163.573 194.942C163.573 189.525 131.24 185.133 91.3558 185.133C51.4714 185.133 19.1387 189.525 19.1387 194.942C19.1387 200.359 51.4714 204.75 91.3558 204.75Z" fill="black"/>
<path d="M384.825 321C456.719 321 515 313.084 515 303.32C515 293.555 456.719 285.64 384.825 285.64C312.932 285.64 254.65 293.555 254.65 303.32C254.65 313.084 312.932 321 384.825 321Z" fill="#3F3D56"/>
<path d="M142.875 307.052C186.062 307.052 221.072 302.297 221.072 296.431C221.072 290.566 186.062 285.811 142.875 285.811C99.6877 285.811 64.6777 290.566 64.6777 296.431C64.6777 302.297 99.6877 307.052 142.875 307.052Z" fill="#3F3D56"/>
<path d="M212.791 287.476C254.189 298.039 333.766 273.7 342.506 246.146" stroke="#2F2E41" stroke-width="2" stroke-miterlimit="10"/>
<path d="M142.414 118.94C142.414 118.94 202.212 102.408 205.892 155.678C209.571 208.949 156.674 224.103 198.072 234.665" stroke="#2F2E41" stroke-width="2" stroke-miterlimit="10"/>
<path d="M84.6426 246.735C84.6426 246.735 102.615 241.766 103.721 257.777C104.827 273.788 88.9283 278.343 101.371 281.517" stroke="#2F2E41" stroke-width="2" stroke-miterlimit="10"/>
<path d="M358.19 258.655L354.566 281.752C354.566 281.752 336.727 291.213 349.27 291.492C361.813 291.77 420.905 291.492 420.905 291.492C420.905 291.492 432.333 291.492 414.215 281.474L410.592 257.264L358.19 258.655Z" fill="#2F2E41"/>
<path opacity="0.1" d="M346.747 291.241C349.596 288.71 354.566 286.074 354.566 286.074L358.19 262.977L410.592 263.026L414.215 285.795C418.44 288.132 421.058 289.923 422.589 291.296C424.916 290.766 427.459 288.796 414.215 281.474L410.592 257.264L358.19 258.655L354.566 281.752C354.566 281.752 339.576 289.703 346.747 291.241Z" fill="black"/>
<path d="M493.855 97.6724H274.369C269.785 97.6724 266.068 101.383 266.068 105.959V253.568C266.068 258.145 269.785 261.855 274.369 261.855H493.855C498.439 261.855 502.155 258.145 502.155 253.568V105.959C502.155 101.383 498.439 97.6724 493.855 97.6724Z" fill="#2F2E41"/>
<path d="M494.211 106.438H274.012V229.436H494.211V106.438Z" fill="#3F3D56"/>
<rect x="348.002" y="189.346" width="81.0997" height="19.3095" transform="rotate(-45 348.002 189.346)" fill="#00EAF5"/>
<rect x="361.654" y="132" width="81.0997" height="19.3095" transform="rotate(45 361.654 132)" fill="#00EAF5"/>
<path d="M384.112 103.934C384.882 103.934 385.506 103.311 385.506 102.542C385.506 101.774 384.882 101.151 384.112 101.151C383.343 101.151 382.719 101.774 382.719 102.542C382.719 103.311 383.343 103.934 384.112 103.934Z" fill="#F2F2F2"/>
<path d="M502.155 239.176V253.568C502.156 254.657 501.941 255.734 501.524 256.74C501.107 257.745 500.495 258.659 499.725 259.428C498.954 260.198 498.039 260.808 497.031 261.225C496.024 261.641 494.945 261.855 493.855 261.855H274.369C273.279 261.855 272.2 261.641 271.192 261.225C270.185 260.808 269.27 260.198 268.499 259.428C267.728 258.659 267.117 257.745 266.7 256.74C266.283 255.734 266.068 254.657 266.068 253.568V239.176H502.155Z" fill="#2F2E41"/>
<path d="M445.713 306.519V309.301H295.754V307.075L295.96 306.519L299.656 296.5H442.646L445.713 306.519Z" fill="#2F2E41"/>
<path d="M503.422 303.795C503.149 304.961 502.118 306.191 499.787 307.354C491.425 311.528 474.423 306.241 474.423 306.241C474.423 306.241 461.322 304.014 461.322 298.171C461.69 297.919 462.074 297.692 462.471 297.489C465.986 295.632 477.643 291.05 498.311 297.683C499.834 298.16 501.194 299.05 502.24 300.253C503.078 301.232 503.734 302.474 503.422 303.795Z" fill="#2F2E41"/>
<path opacity="0.1" d="M503.422 303.794C493.187 307.71 484.064 308.002 474.702 301.51C469.98 298.237 465.69 297.427 462.471 297.488C465.986 295.632 477.643 291.05 498.311 297.682C499.834 298.16 501.194 299.049 502.24 300.253C503.078 301.232 503.734 302.473 503.422 303.794Z" fill="black"/>
<path d="M490.588 301.51C492.59 301.51 494.212 301.012 494.212 300.397C494.212 299.782 492.59 299.284 490.588 299.284C488.587 299.284 486.965 299.782 486.965 300.397C486.965 301.012 488.587 301.51 490.588 301.51Z" fill="#F2F2F2"/>
<path d="M384.112 255.872C387.037 255.872 389.408 253.505 389.408 250.585C389.408 247.665 387.037 245.298 384.112 245.298C381.187 245.298 378.816 247.665 378.816 250.585C378.816 253.505 381.187 255.872 384.112 255.872Z" fill="#F2F2F2"/>
<path opacity="0.1" d="M445.713 306.519V309.301H295.754V307.075L295.96 306.519H445.713Z" fill="black"/>
<path d="M145.635 73.0171H49.959V184.15H145.635V73.0171Z" fill="#2F2E41"/>
<path d="M155.294 61.9956H40.2988V101.489H155.294V61.9956Z" fill="#3F3D56"/>
<path d="M155.294 108.837H40.2988V148.33H155.294V108.837Z" fill="#3F3D56"/>
<path d="M155.294 155.678H40.2988V195.172H155.294V155.678Z" fill="#3F3D56"/>
<path opacity="0.4" d="M132.295 68.8843H124.936V76.2319H132.295V68.8843Z" fill="#63FFFD"/>
<path opacity="0.8" d="M142.875 68.8843H135.516V76.2319H142.875V68.8843Z" fill="#63FFFD"/>
<path d="M153.453 68.8843H146.094V76.2319H153.453V68.8843Z" fill="#63FFFD"/>
<path opacity="0.4" d="M132.295 115.266H124.936V122.614H132.295V115.266Z" fill="#63FFFD"/>
<path opacity="0.8" d="M142.875 115.266H135.516V122.614H142.875V115.266Z" fill="#63FFFD"/>
<path d="M153.453 115.266H146.094V122.614H153.453V115.266Z" fill="#63FFFD"/>
<path opacity="0.4" d="M132.295 161.648H124.936V168.996H132.295V161.648Z" fill="#63FFFD"/>
<path opacity="0.8" d="M142.875 161.648H135.516V168.996H142.875V161.648Z" fill="#63FFFD"/>
<path d="M153.453 161.648H146.094V168.996H153.453V161.648Z" fill="#63FFFD"/>
<path d="M145.633 283.343C165.703 283.343 181.972 267.1 181.972 247.064C181.972 227.028 165.703 210.785 145.633 210.785C125.564 210.785 109.295 227.028 109.295 247.064C109.295 267.1 125.564 283.343 145.633 283.343Z" fill="#2F2E41"/>
<path d="M140.114 275.537H129.074V295.283H140.114V275.537Z" fill="#2F2E41"/>
<path d="M162.194 275.537H151.154V295.283H162.194V275.537Z" fill="#2F2E41"/>
<path d="M138.274 298.957C143.355 298.957 147.473 297.415 147.473 295.513C147.473 293.61 143.355 292.068 138.274 292.068C133.193 292.068 129.074 293.61 129.074 295.513C129.074 297.415 133.193 298.957 138.274 298.957Z" fill="#2F2E41"/>
<path d="M160.354 298.498C165.435 298.498 169.554 296.956 169.554 295.054C169.554 293.151 165.435 291.609 160.354 291.609C155.273 291.609 151.154 293.151 151.154 295.054C151.154 296.956 155.273 298.498 160.354 298.498Z" fill="#2F2E41"/>
<path d="M146.554 250.279C153.413 250.279 158.974 244.727 158.974 237.88C158.974 231.032 153.413 225.48 146.554 225.48C139.695 225.48 134.135 231.032 134.135 237.88C134.135 244.727 139.695 250.279 146.554 250.279Z" fill="white"/>
<path d="M146.554 242.013C148.84 242.013 150.694 240.163 150.694 237.88C150.694 235.597 148.84 233.747 146.554 233.747C144.268 233.747 142.414 235.597 142.414 237.88C142.414 240.163 144.268 242.013 146.554 242.013Z" fill="#3F3D56"/>
<path d="M110.385 213.326C107.451 200.207 116.83 186.951 131.334 183.718C145.839 180.484 159.975 188.498 162.909 201.617C165.843 214.736 156.231 219.575 141.727 222.808C127.223 226.041 113.319 226.445 110.385 213.326Z" fill="#63FFFD"/>
<path d="M179.718 239.828C188.943 235.887 195.417 230.347 194.177 227.456C192.938 224.564 184.454 225.416 175.229 229.358C166.004 233.3 159.53 238.839 160.77 241.731C162.009 244.622 170.493 243.77 179.718 239.828Z" fill="#2F2E41"/>
<path d="M111.64 264.168C120.865 260.226 127.338 254.686 126.099 251.795C124.859 248.904 116.376 249.756 107.151 253.697C97.9257 257.639 91.4521 263.179 92.6916 266.07C93.9312 268.961 102.414 268.11 111.64 264.168Z" fill="#2F2E41"/>
<path d="M166.794 257.626C166.794 261.177 157.636 268.189 147.475 268.189C137.313 268.189 127.695 261.636 127.695 258.086C127.695 254.535 137.313 255.33 147.475 255.33C157.636 255.33 166.794 254.076 166.794 257.626Z" fill="white"/>
</g>
<defs>
<clipPath id="clip0">
<rect width="515" height="321" fill="white"/>
</clipPath>
</defs>
</svg>
