<svg width="117" height="82" viewBox="0 0 117 82" fill="none" xmlns="http://www.w3.org/2000/svg">
<path d="M17.55 35.1429C24.0033 35.1429 29.25 29.8897 29.25 23.4286C29.25 16.9674 24.0033 11.7143 17.55 11.7143C11.0967 11.7143 5.85 16.9674 5.85 23.4286C5.85 29.8897 11.0967 35.1429 17.55 35.1429ZM99.45 35.1429C105.903 35.1429 111.15 29.8897 111.15 23.4286C111.15 16.9674 105.903 11.7143 99.45 11.7143C92.9967 11.7143 87.75 16.9674 87.75 23.4286C87.75 29.8897 92.9967 35.1429 99.45 35.1429ZM105.3 41H93.6C90.3825 41 87.4758 42.2996 85.3552 44.4045C92.7225 48.4496 97.9509 55.7527 99.0844 64.4286H111.15C114.386 64.4286 117 61.8112 117 58.5714V52.7143C117 46.2531 111.753 41 105.3 41ZM58.5 41C69.8161 41 78.975 31.8299 78.975 20.5C78.975 9.17009 69.8161 0 58.5 0C47.1839 0 38.025 9.17009 38.025 20.5C38.025 31.8299 47.1839 41 58.5 41ZM72.54 46.8571H71.0227C67.2202 48.6875 62.9972 49.7857 58.5 49.7857C54.0028 49.7857 49.7981 48.6875 45.9773 46.8571H44.46C32.8331 46.8571 23.4 56.3018 23.4 67.9429V73.2143C23.4 78.0647 27.3305 82 32.175 82H84.825C89.6695 82 93.6 78.0647 93.6 73.2143V67.9429C93.6 56.3018 84.1669 46.8571 72.54 46.8571ZM31.6448 44.4045C29.5242 42.2996 26.6175 41 23.4 41H11.7C5.24672 41 0 46.2531 0 52.7143V58.5714C0 61.8112 2.61422 64.4286 5.85 64.4286H17.8973C19.0491 55.7527 24.2775 48.4496 31.6448 44.4045Z" fill="#00EAF5"/>
</svg>
