<svg width="17" height="12" viewBox="0 0 17 12" fill="none" xmlns="http://www.w3.org/2000/svg">
<path d="M8.51053 11.0898H8.49354C8.44089 11.0898 3.17269 11.0804 1.84353 10.7468C1.11264 10.5648 0.541854 10.0369 0.34537 9.36118C0.106359 8.11482 -0.00905882 6.85089 0.000554434 5.58513C-0.0056207 4.3173 0.11292 3.05158 0.354712 1.80359C0.556596 1.12729 1.12488 0.596941 1.85457 0.40386C3.14721 0.0898438 8.27018 0.0898438 8.4876 0.0898438H8.50543C8.55894 0.0898438 13.8407 0.0992642 15.1563 0.432907C15.8856 0.615829 16.4553 1.14266 16.6528 1.81693C16.8994 3.06793 17.0151 4.33797 16.9984 5.60947C17.0044 6.87577 16.8855 8.13993 16.6434 9.3863C16.4444 10.0612 15.8732 10.5879 15.1427 10.7703C13.8518 11.0867 8.72795 11.0898 8.51053 11.0898ZM6.81193 3.23393L6.80768 7.94418L11.2342 5.58906L6.81193 3.23393Z" fill="#00EAF5"/>
</svg>
